<?xml version="1.0" encoding="UTF-8" standalone="no"?>
<!-- Created with Inkscape (http://www.inkscape.org/) -->

<svg
   version="1.1"
   id="svg3939"
   width="300.4158"
   height="300.35068"
   viewBox="0 0 300.4158 300.35068"
   sodipodi:docname="logo-dcce-new-1024x1024.svg"
   inkscape:version="1.2.2 (732a01da63, 2022-12-09)"
   xmlns:inkscape="http://www.inkscape.org/namespaces/inkscape"
   xmlns:sodipodi="http://sodipodi.sourceforge.net/DTD/sodipodi-0.dtd"
   xmlns="http://www.w3.org/2000/svg"
   xmlns:svg="http://www.w3.org/2000/svg">
  <defs
     id="defs3943" />
  <sodipodi:namedview
     id="namedview3941"
     pagecolor="#ffffff"
     bordercolor="#000000"
     borderopacity="0.25"
     inkscape:showpageshadow="2"
     inkscape:pageopacity="0.0"
     inkscape:pagecheckerboard="0"
     inkscape:deskcolor="#d1d1d1"
     showgrid="false"
     inkscape:zoom="0.7578125"
     inkscape:cx="-25.731959"
     inkscape:cy="180.12371"
     inkscape:window-width="1920"
     inkscape:window-height="991"
     inkscape:window-x="-9"
     inkscape:window-y="-9"
     inkscape:window-maximized="1"
     inkscape:current-layer="g3945"
     showguides="true" />
  <g
     inkscape:groupmode="layer"
     inkscape:label="Image"
     id="g3945"
     transform="translate(0.26173132,0.20556354)">
    <path
       id="path861"
       style="opacity:1;fill:#175139;fill-rule:evenodd;stroke:none;stroke-width:0.5;stroke-linecap:square;stroke-linejoin:round;stroke-dasharray:0.5, 12;stroke-dashoffset:0;paint-order:stroke fill markers"
       d="M 299.90327,149.92642 A 149.97805,149.97805 0 0 1 149.92522,299.90447 149.97805,149.97805 0 0 1 -0.05283667,149.92642 149.97805,149.97805 0 0 1 149.92522,-0.0516345 149.97805,149.97805 0 0 1 299.90327,149.92642 Z" />
    <g
       id="rect10784"
       style="opacity:0.5" />
    <path
       id="circle863"
       style="opacity:1;fill:#ffffff;fill-rule:evenodd;stroke-width:1.01995;stroke-linecap:square;stroke-linejoin:round;stroke-dasharray:1.01995, 24.4787;paint-order:stroke fill markers"
       d="M 272.5354,149.92642 A 122.61019,122.61019 0 0 1 149.92522,272.53661 122.61019,122.61019 0 0 1 27.31503,149.92642 122.61019,122.61019 0 0 1 149.92522,27.316232 122.61019,122.61019 0 0 1 272.5354,149.92642 Z" />
    <path
       id="circle865"
       style="opacity:1;fill:#175139;fill-opacity:1;fill-rule:evenodd;stroke-width:0.963032;stroke-linecap:square;stroke-linejoin:round;stroke-dasharray:0.963032, 23.1127;paint-order:stroke fill markers"
       d="M 149.92522,34.158333 A 115.76821,115.76821 0 0 0 34.157131,149.92642 a 115.76821,115.76821 0 0 0 8.358687,42.9657 H 57.634684 A 101.51159,101.51159 0 0 1 48.026486,149.92642 101.51159,101.51159 0 0 1 149.53846,48.415013 101.51159,101.51159 0 0 1 251.04987,149.92642 a 101.51159,101.51159 0 0 1 -9.6082,42.9657 h 15.89295 A 115.76821,115.76821 0 0 0 265.6933,149.92642 115.76821,115.76821 0 0 0 149.92522,34.158333 Z m 5.7e-4,21.416773 a 95.696262,95.696262 0 0 0 -95.696944,95.696374 95.696262,95.696262 0 0 0 9.6677,41.62064 h 17.564111 a 80.370254,80.370254 0 0 1 -11.905835,-41.62064 80.370254,80.370254 0 0 1 80.370968,-80.370401 80.370254,80.370254 0 0 1 80.36982,80.370401 80.370254,80.370254 0 0 1 -11.90583,41.62064 h 17.69226 a 95.696262,95.696262 0 0 0 9.53955,-41.62064 95.696262,95.696262 0 0 0 -95.6958,-95.696374 z m -5.7e-4,23.946691 a 71.065176,71.065176 0 0 0 -71.065425,71.065423 71.065176,71.065176 0 0 0 14.262974,42.3049 h 41.610921 v -14.38884 a 27.825608,26.388796 0 0 1 -13.82072,3.4888 27.825608,26.388796 0 0 1 -27.825674,-26.38908 27.825608,26.388796 0 0 1 27.825674,-26.3885 27.825608,26.388796 0 0 1 4.84701,0.40506 26.204738,26.204738 0 0 1 -1.63112,-8.91021 26.204738,26.204738 0 0 1 26.20485,-26.204851 26.204738,26.204738 0 0 1 26.20485,26.204851 26.204738,26.204738 0 0 1 -1.63111,8.91021 27.825608,26.388796 0 0 1 4.84643,-0.40506 27.825608,26.388796 0 0 1 27.82567,26.3885 27.825608,26.388796 0 0 1 -27.82567,26.38908 27.825608,26.388796 0 0 1 -13.82072,-3.61638 v 14.51642 h 40.7945 a 71.065176,71.065176 0 0 0 14.26298,-42.3049 71.065176,71.065176 0 0 0 -71.06542,-71.065423 z" />
    <path
       id="path1769"
       style="opacity:1;fill:#ffffff;fill-rule:evenodd;stroke-width:1.14236;stroke-linecap:square;stroke-linejoin:round;paint-order:stroke fill markers"
       d="m 21.299808,134.54158 a 6.7732025,6.7732025 0 0 1 -6.773202,6.7732 6.7732025,6.7732025 0 0 1 -6.773203,-6.7732 6.7732025,6.7732025 0 0 1 6.773203,-6.7732 6.7732025,6.7732025 0 0 1 6.773202,6.7732 z" />
    <g
       id="g1777"
       transform="matrix(-0.29292589,0,0,0.29292589,302.32237,-0.0516345)"
       style="opacity:1">
      <path
         id="circle1773"
         style="opacity:1;fill:#ffffff;fill-rule:evenodd;stroke-width:3.89984;stroke-linecap:square;stroke-linejoin:round;paint-order:stroke fill markers"
         d="M 81.141163,459.47873 A 23.122581,23.122581 0 0 1 58.018581,482.60131 23.122581,23.122581 0 0 1 34.896,459.47873 23.122581,23.122581 0 0 1 58.018581,436.35615 23.122581,23.122581 0 0 1 81.141163,459.47873 Z" />
    </g>
    <g
       id="rect10007"
       style="opacity:1;fill:#209847;fill-opacity:1"
       transform="matrix(0.29292589,0,0,0.29292589,-0.05283667,-0.0516345)">
      <path
         id="path10730"
         style="color:#000000;fill:#209847;fill-opacity:1;fill-rule:evenodd;stroke-linecap:square;stroke-linejoin:round;-inkscape-stroke:none;paint-order:stroke fill markers"
         d="m 513.95508,393.41406 a 30.059355,30.059355 0 0 0 -30.0586,30.0586 30.059355,30.059355 0 0 0 30.0586,30.06054 30.059355,30.059355 0 0 0 30.05859,-30.06054 30.059355,30.059355 0 0 0 -30.05859,-30.0586 z m -64.3711,33.92188 -9.9121,17.16797 c 12.84456,3.81746 23.68666,9.91899 33.58593,17.83593 8.48179,6.78333 15.5202,14.57414 21.23242,24.71289 l 15.22266,-12.68359 c -5.55957,-9.29174 -11.78254,-17.50596 -19.74609,-24.2207 -11.81948,-9.96599 -24.78724,-18.77997 -40.38282,-22.8125 z m 128.74219,0 c -15.59556,4.03253 -28.56333,12.84651 -40.38281,22.8125 -7.96355,6.71474 -14.18652,14.92896 -19.74609,24.2207 l 15.22265,12.68359 c 5.71224,-10.13875 12.75063,-17.92956 21.23242,-24.71289 9.89927,-7.91694 20.74136,-14.01847 33.58594,-17.83593 z m -151.38867,21.71094 -10.14062,17.56054 c 20.68708,3.63405 38.49294,14.97257 50.06054,30.82617 8.88639,12.179 14.0918,27.02315 14.0918,43.08399 v 116.49414 h 23.08203 V 540.51758 c 0,-23.07511 -8.25782,-44.19875 -21.97266,-60.89844 -13.38951,-16.30361 -34.76345,-26.23912 -55.12109,-30.57226 z m 174.03516,0 c -20.35764,4.33314 -41.73157,14.26865 -55.1211,30.57226 -13.71482,16.69969 -21.97265,37.82333 -21.97265,60.89844 v 116.49414 h 23.08203 V 540.51758 c 0,-16.06084 5.2054,-30.90499 14.09179,-43.08399 11.5676,-15.8536 29.37345,-27.19212 50.06055,-30.82617 z" />
    </g>
    <path
       style="opacity:1;fill:#175139;fill-opacity:1;stroke-width:0.292926"
       d="m 224.45907,232.16597 c -6.7921,-4.24345 -18.37734,-7.84228 -25.21264,-7.83205 -3.71313,0.006 -5.59762,0.46663 -11.40797,2.7911 -6.02719,2.41122 -8.56026,3.06309 -11.90273,3.06309 -3.63465,0 -5.81773,-0.63881 -10.63604,-3.11232 -6.49998,-3.33681 -10.36214,-4.20841 -18.65489,-4.21 -7.60481,-0.001 -12.34853,0.92878 -21.35119,4.18696 -4.85915,1.75859 -7.4069,2.25658 -11.54474,2.25658 -4.19526,0 -6.55219,-0.47139 -12.57413,-2.51488 -2.56582,-0.87068 -5.711027,-1.78147 -6.989347,-2.02396 -4.208208,-0.79828 -8.351704,-0.47746 -12.511907,0.96875 -1.970179,0.6849 -6.413525,2.92548 -8.199638,4.13471 l -1.315881,0.89087 -2.14029,-2.11914 c -4.324965,-4.28223 -10.311638,-11.8385 -14.056423,-17.74177 -1.092921,-1.72288 -1.393311,-2.39194 -1.025241,-2.28356 4.244198,1.24981 8.26085,1.75865 12.345617,1.56398 3.814703,-0.18181 5.29327,-0.57623 12.998457,-3.46746 7.641681,-2.86741 12.29755,-3.64369 18.910074,-3.15289 4.614309,0.34248 7.563439,1.11602 13.850859,3.63301 6.74592,2.70054 8.56258,3.1515 12.71781,3.157 4.03371,0.005 5.76226,-0.41744 12.57453,-3.07559 8.77733,-3.42491 13.99383,-4.36369 20.91049,-3.76311 7.24068,0.62871 10.43061,1.67523 16.86871,5.53407 1.91707,1.14905 4.1968,2.35528 5.06605,2.68051 3.74821,1.40238 10.60872,1.90111 14.00017,1.01775 0.95189,-0.24793 2.92388,-1.09252 4.3822,-1.87686 2.92751,-1.57452 7.81912,-3.22385 12.31806,-4.15335 2.38667,-0.49309 3.66176,-0.58127 6.88376,-0.47604 3.81152,0.12449 4.11337,0.18244 8.34839,1.60264 5.66291,1.89903 7.77621,2.25487 13.37748,2.25248 l 4.58972,-0.002 -2.60551,3.82211 c -4.35858,6.39378 -10.34252,13.47154 -14.93809,17.66868 l -1.62687,1.48582 -1.44885,-0.90518 z"
       id="path720" />
    <path
       style="opacity:1;fill:#175139;fill-opacity:1;stroke-width:0.292926"
       d="m 141.86976,262.52104 c -4.51722,-0.45826 -9.26098,-1.091 -12.00997,-1.60193 -12.34637,-2.29472 -25.01896,-7.01233 -35.822869,-13.33575 -2.852492,-1.66953 -9.702585,-6.23002 -11.327248,-7.54118 l -0.867828,-0.70037 1.59356,-0.80752 c 3.860928,-1.95648 8.023838,-2.75898 11.573394,-2.23105 2.554457,0.37992 4.723614,1.12287 9.903101,3.39183 5.37945,2.35656 7.90542,2.90362 12.49854,2.70685 4.53403,-0.19424 7.43432,-0.91147 14.53483,-3.59436 6.07863,-2.2968 8.338,-2.93802 11.86173,-3.36647 5.13788,-0.6247 10.18149,0.44458 17.44548,3.69856 8.01431,3.59009 11.48404,4.38422 18.11179,4.14531 4.46438,-0.16093 4.68834,-0.21324 12.30289,-2.87319 4.20731,-1.46972 4.55027,-1.54058 8.07696,-1.66886 2.75033,-0.10004 4.3082,-0.008 6.15144,0.3653 2.80826,0.56801 8.66627,2.39814 8.90319,2.78149 0.20959,0.33912 -5.49759,4.11306 -10.24286,6.7732 -12.17469,6.825 -25.47652,11.23109 -39.83792,13.19587 -3.40429,0.46574 -6.34009,0.6214 -13.0352,0.69113 -4.75272,0.0495 -9.16858,0.0365 -9.81301,-0.0288 z"
       id="path718" />
    <g
       aria-label="กรมการเปลี่ยนแปลงสภาพภูมิอากาศและสิ่งแวดล้อม"
       id="text3651"
       style="font-size:72px;line-height:1.5;font-family:BywayEModified;-inkscape-font-specification:BywayEModified;text-align:center;text-anchor:middle;opacity:1;fill:#ffffff;fill-rule:evenodd;stroke-width:3.482;stroke-linecap:square;stroke-linejoin:round;paint-order:stroke fill markers"
       transform="matrix(0.29292589,0,0,0.29292589,-0.05283667,-0.0516345)">
      <path
         d="m 99.764065,358.11959 -2.289891,6.59212 -17.484899,-6.07369 q -1.627275,-0.56526 -3.202287,-0.42385 -1.58585,0.11903 -2.968596,0.88547 -1.376977,0.74984 -2.472896,2.13696 -1.106755,1.36474 -1.78161,3.30751 -1.257421,3.61985 0.422292,7.08764 l 2.341981,-1.0101 20.60661,7.15807 -2.289891,6.59213 -18.497795,-6.42554 -4.606705,2.06565 q -1.676216,-1.9779 -2.82772,-4.12709 -1.145735,-2.1658 -1.6902,-4.40186 -0.538698,-2.25266 -0.454451,-4.53085 0.09001,-2.29478 0.868692,-4.53644 0.755606,-2.17523 1.901164,-3.9731 1.134722,-1.82024 2.58074,-3.19739 1.429414,-1.38293 3.125379,-2.30109 1.679361,-0.92393 3.519176,-1.34552 1.845584,-0.43819 3.80111,-0.33577 1.938921,0.0967 3.914897,0.78305 z"
         style="font-weight:bold;font-family:'DB Adman X';-inkscape-font-specification:'DB Adman X Bold'"
         id="path4046" />
      <path
         d="m 101.62644,325.2375 q 1.79039,0.77561 3.0647,1.90234 1.2813,1.11061 2.12767,2.47341 0.83724,1.33968 1.25138,2.86005 0.42113,1.50425 0.45894,3.05315 0.0378,1.54891 -0.26364,3.08496 -0.30145,1.53604 -0.90236,2.92319 -0.57297,1.32263 -1.411,2.5496 -0.83105,1.21083 -1.91749,2.21524 -1.09558,0.9813 -2.41646,1.7309 -1.337,0.74261 -2.898778,1.11966 -1.577904,0.37007 -3.366603,0.3423 -1.804828,-0.0347 -3.819929,-0.60119 l 0.594412,-6.8113 q 2.102736,0.58525 3.630682,0.59584 1.527946,0.0106 2.621438,-0.43523 1.093491,-0.44582 1.819198,-1.28084 0.70958,-0.842 1.18473,-1.93882 0.51008,-1.17747 0.61156,-2.34037 0.0854,-1.1699 -0.22228,-2.18437 -0.30064,-1.03061 -1.0061,-1.83429 -0.70546,-0.80368 -1.802279,-1.27882 -0.98391,-0.42623 -2.036,0.0567 -1.05209,0.48291 -2.327714,2.05669 -0.825688,1.02159 -1.744891,2.34749 -0.935332,1.31891 -1.972275,2.65127 -1.036943,1.33236 -2.191104,2.53732 -1.163302,1.18183 -2.435789,1.9524 -1.281628,0.74744 -2.704177,0.93577 -1.422549,0.18833 -2.987128,-0.48945 -1.516189,-0.65682 -2.578655,-1.65347 -1.055479,-1.01278 -1.713135,-2.23636 -0.657656,-1.22357 -0.93845,-2.60955 -0.280795,-1.38598 -0.247615,-2.7892 0.02404,-1.42634 0.334099,-2.80539 0.317049,-1.39519 0.855081,-2.63717 0.48912,-1.12908 1.169641,-2.21355 0.671379,-1.10759 1.570728,-2.07812 0.88322,-0.9775 1.980435,-1.78568 1.097215,-0.80818 2.428864,-1.36155 1.322508,-0.57648 2.913864,-0.84493 1.582214,-0.29157 3.428444,-0.21973 l -0.374537,6.65751 q -1.551064,-10e-4 -2.715538,0.29869 -1.157487,0.28399 -2.016021,0.85075 -0.851546,0.55062 -1.452527,1.36305 -0.593995,0.79629 -1.034203,1.81246 -0.517069,1.1936 -0.634161,2.21565 -0.126234,0.99893 0.05073,1.78439 0.167824,0.76234 0.583471,1.30637 0.422635,0.52791 0.987174,0.77247 0.370982,0.16071 0.687634,0.0489 0.316652,-0.11186 0.631673,-0.39684 0.305877,-0.3081 0.628408,-0.74307 0.329518,-0.45111 0.742362,-0.96191 0.988031,-1.21945 2.027652,-2.64643 1.046608,-1.44312 2.176019,-2.81205 1.136399,-1.38506 2.394325,-2.56422 1.257926,-1.17916 2.684722,-1.86372 1.417653,-0.70768 3.026771,-0.79602 1.609117,-0.0883 3.464032,0.7152 z"
         style="font-weight:bold;font-family:'DB Adman X';-inkscape-font-specification:'DB Adman X Bold'"
         id="path4048" />
      <path
         d="m 117.13212,294.24386 q 1.6819,0.88049 2.89378,2.09031 1.22004,1.19424 2.01154,2.60066 0.77594,1.39826 1.1478,2.96197 0.38001,1.54814 0.35815,3.14382 -0.0137,1.58012 -0.42041,3.15291 -0.38298,1.56538 -1.12487,2.98254 -0.53807,1.02783 -1.33347,1.9408 -0.77167,0.90554 -1.76064,1.65764 -0.98081,0.73654 -2.15446,1.27291 -1.18922,0.52823 -2.52309,0.80216 l 3.31709,1.73651 -3.2366,6.18257 -28.763718,-15.05793 3.236599,-6.18257 15.619929,8.1771 q 0.93439,0.48916 2.02369,0.68243 1.08929,0.19327 2.23043,0.1359 1.12556,-0.0655 2.25552,-0.36684 1.12253,-0.32504 2.10711,-0.84135 0.969,-0.52447 1.76073,-1.24093 0.78432,-0.7402 1.24902,-1.62787 0.58699,-1.12127 0.78914,-2.26544 0.19474,-1.16789 -0.045,-2.22593 -0.24717,-1.08178 -0.94587,-1.98326 -0.71427,-0.90963 -1.92898,-1.54554 l -18.438686,-9.65273 3.236599,-6.18256 z"
         style="font-weight:bold;font-family:'DB Adman X';-inkscape-font-specification:'DB Adman X Bold'"
         id="path4050" />
      <path
         d="m 145.80471,269.84103 -3.71019,5.91052 -15.677,-9.8409 q -1.45902,-0.91586 -3.02562,-1.13135 -1.57214,-0.23971 -3.09157,0.19704 -1.51008,0.42187 -2.88921,1.52782 -1.38468,1.08172 -2.47811,2.82361 -2.03733,3.24557 -1.17827,7.00176 l 2.50888,-0.45904 18.47593,11.59786 -3.7102,5.91051 -16.58516,-10.41097 -4.95266,0.9797 q -1.18985,-2.30348 -1.82993,-4.6562 -0.63074,-2.3676 -0.65977,-4.66881 -0.0197,-2.3161 0.57342,-4.51733 0.60246,-2.21613 1.86411,-4.226 1.22427,-1.95032 2.74391,-3.44542 1.5141,-1.51933 3.23218,-2.53704 1.70318,-1.02706 3.56188,-1.54141 1.84381,-0.5237 3.73131,-0.52186 1.89685,-0.0131 3.77957,0.52539 1.86784,0.52911 3.6395,1.64123 z"
         style="font-weight:bold;font-family:'DB Adman X';-inkscape-font-specification:'DB Adman X Bold'"
         id="path4052" />
      <path
         d="m 161.53007,248.22632 -4.11551,5.6358 -16.33957,-11.93186 q -5.05376,-3.69048 -8.61985,1.19293 -0.44576,0.61043 -0.75722,1.2754 -0.32565,0.6546 -0.49786,1.48655 -0.17604,0.80739 -0.16258,1.86199 -7.3e-4,1.04424 0.18916,2.42357 l -6.53363,1.01863 q -0.31513,-2.10201 -0.25893,-3.75872 0.042,-1.66708 0.40398,-3.05697 0.35815,-1.41445 1.00021,-2.62157 0.65244,-1.22132 1.53359,-2.42798 1.95927,-2.68304 4.19902,-4.05119 2.23592,-1.39271 4.5279,-1.69973 2.27777,-0.31738 4.50839,0.35381 2.24099,0.657 4.17165,2.06684 z"
         style="font-weight:bold;font-family:'DB Adman X';-inkscape-font-specification:'DB Adman X Bold'"
         id="path4054" />
      <path
         d="m 172.53967,217.1512 q 1.49716,1.25123 2.39988,2.69293 0.914,1.4282 1.33943,2.975 0.42322,1.52204 0.38948,3.09745 -0.0225,1.56192 -0.4252,3.05803 -0.40274,1.49611 -1.12716,2.88374 -0.72443,1.38762 -1.69385,2.54759 -0.92433,1.10601 -2.07574,2.04515 -1.14014,0.92565 -2.46671,1.58096 -1.32877,0.63056 -2.80794,0.97506 -1.49265,0.33323 -3.09725,0.25219 -1.61809,-0.0923 -3.32557,-0.62589 -1.72098,-0.54484 -3.49292,-1.65917 l 2.50049,-6.36355 q 1.85064,1.1572 3.31294,1.6004 1.46229,0.4432 2.6373,0.32558 1.17501,-0.11762 2.10762,-0.71273 0.91912,-0.60637 1.68564,-1.52355 0.82288,-0.98462 1.24979,-2.07108 0.41343,-1.09773 0.40593,-2.1578 0.004,-1.07355 -0.44499,-2.04422 -0.44875,-0.97067 -1.36593,-1.73719 -0.82277,-0.68761 -1.96858,-0.52268 -1.14582,0.16492 -2.81517,1.31264 -1.08137,0.74569 -2.33867,1.7567 -1.27078,0.99974 -2.64282,1.98358 -1.37204,0.98384 -2.82038,1.81228 -1.45056,0.80368 -2.88926,1.182 -1.44092,0.35357 -2.85851,0.13099 -1.41759,-0.22257 -2.72593,-1.31598 -1.26786,-1.05961 -2.0043,-2.31651 -0.72516,-1.2704 -1.00906,-2.63019 -0.28391,-1.3598 -0.16038,-2.76853 0.12353,-1.40873 0.55305,-2.74501 0.4273,-1.36104 1.11549,-2.59567 0.69947,-1.24812 1.56744,-2.28669 0.78907,-0.94416 1.74904,-1.79129 0.95776,-0.8719 2.0953,-1.54773 1.12405,-0.68711 2.40533,-1.15118 1.28127,-0.46407 2.71515,-0.61734 1.43167,-0.17802 3.03386,0.0156 1.59997,0.16882 3.35014,0.76096 l -2.24604,6.27839 q -1.48705,-0.44098 -2.68884,-0.4832 -1.19052,-0.0557 -2.17448,0.2445 -0.97268,0.2867 -1.77928,0.89549 -0.79532,0.59529 -1.50548,1.44503 -0.83415,0.99811 -1.23611,1.94507 -0.40417,0.92219 -0.45707,1.7256 -0.0551,0.77864 0.18929,1.41817 0.25569,0.62605 0.72777,1.02058 0.31022,0.25926 0.64559,0.24173 0.33538,-0.0175 0.71825,-0.20154 0.38065,-0.20877 0.81324,-0.5345 0.44386,-0.33922 0.98454,-0.71206 1.29313,-0.88943 2.69456,-1.96326 1.4127,-1.08731 2.88378,-2.08001 1.48235,-1.0062 3.02289,-1.78049 1.54054,-0.77429 3.10285,-1.0264 1.56009,-0.27688 3.12827,0.0944 1.56818,0.37133 3.11929,1.66765 z"
         style="font-weight:bold;font-family:'DB Adman X';-inkscape-font-specification:'DB Adman X Bold'"
         id="path4056" />
      <path
         d="m 185.66056,219.60184 -23.7538,-22.02927 4.74531,-5.1168 23.75381,22.02927 z"
         style="font-weight:bold;font-family:'DB Adman X';-inkscape-font-specification:'DB Adman X Bold'"
         id="path4058" />
      <path
         d="m 206.32379,180.72793 q 1.28245,1.32737 2.08837,2.89518 0.80592,1.5678 1.16188,3.27704 0.35638,1.68438 0.25144,3.44784 -0.10495,1.76346 -0.64422,3.48215 -0.53885,1.69383 -1.51117,3.29318 -0.98453,1.58671 -2.37512,2.93024 -1.40323,1.35573 -3.02288,2.28508 -1.61923,0.90448 -3.34325,1.39693 -1.73623,0.4798 -3.50225,0.52399 -1.75339,0.032 -3.43715,-0.36995 -1.69597,-0.41457 -3.23511,-1.27397 -1.55135,-0.87204 -2.82159,-2.18678 l -13.65508,-14.13341 5.01875,-4.8489 13.65508,14.13342 q 0.94047,0.97341 2.17511,1.46705 1.22244,0.48101 2.55285,0.46662 1.3182,-0.027 2.63274,-0.56383 1.31455,-0.53679 2.42702,-1.6116 1.0619,-1.02597 1.63097,-2.30904 0.58171,-1.29529 0.6541,-2.61178 0.0728,-1.34134 -0.3532,-2.59182 -0.42558,-1.27534 -1.36604,-2.24875 l -23.70708,-24.53752 5.01875,-4.8489 z"
         style="font-weight:bold;font-family:'DB Adman X';-inkscape-font-specification:'DB Adman X Bold'"
         id="path4060" />
      <path
         d="m 234.72954,173.41602 -5.79757,-6.97558 q -0.91008,-1.095 -2.037,-1.59837 -1.13816,-0.51688 -2.33777,-0.5027 -1.21085,6.7e-4 -2.43137,0.51223 -1.23176,0.49803 -2.32676,1.40812 -1.01389,0.84267 -1.68826,1.92885 -0.67208,1.06143 -0.89191,2.22698 -0.21755,1.1408 0.06,2.32725 0.27753,1.18646 1.15391,2.2409 0.39324,0.47315 0.89692,0.83167 0.50368,0.35851 1.23032,0.60027 0.74016,0.23054 1.7528,0.34889 1.01492,0.0936 2.43961,0.0752 l -0.66135,6.62955 q -1.93785,0.0335 -3.52422,-0.22516 -1.59761,-0.27217 -2.90904,-0.80503 -1.29791,-0.54411 -2.35916,-1.35347 -1.07249,-0.82289 -1.94887,-1.87734 -1.17974,-1.41945 -1.84613,-2.99127 -0.67762,-1.58535 -0.86455,-3.21281 -0.19817,-1.64098 0.0515,-3.26563 0.24969,-1.62464 0.8886,-3.13849 0.65243,-1.52509 1.66476,-2.89217 1.02584,-1.37831 2.36418,-2.49063 0.68945,-0.57302 1.52285,-1.08283 0.83341,-0.5098 1.71843,-0.90251 0.88502,-0.39271 1.76757,-0.62338 0.88484,-0.25541 1.66363,-0.30841 l -0.78649,-0.9463 q -0.82915,-1.02513 -1.91341,-1.44967 -1.07074,-0.43577 -2.26597,-0.3338 -1.19294,0.0772 -2.43155,0.64951 -1.23632,0.54754 -2.37188,1.49133 -1.24371,1.03368 -1.92931,2.10634 -0.68559,1.07267 -0.85364,2.21803 -0.16576,1.12061 0.17252,2.32515 0.32704,1.19102 1.1086,2.46141 l -5.0965,4.23582 q -1.33439,-1.90805 -2.00271,-3.72969 -0.65479,-1.83289 -0.77185,-3.54128 -0.12829,-1.72192 0.24061,-3.28564 0.35766,-1.57724 1.07294,-2.97171 0.71756,-1.41922 1.72742,-2.62425 1.00987,-1.20503 2.18598,-2.18253 1.21668,-1.0112 2.68738,-1.79926 1.4707,-0.78806 3.08501,-1.23833 1.60307,-0.46379 3.28214,-0.53362 1.67908,-0.0698 3.33725,0.35771 1.64693,0.41402 3.20537,1.38158 1.5472,0.95405 2.89548,2.57628 l 13.02206,15.66802 z"
         style="font-weight:bold;font-family:'DB Adman X';-inkscape-font-specification:'DB Adman X Bold'"
         id="path4062" />
      <path
         d="m 194.92794,158.74833 -3.90999,-4.70446 16.77655,-13.94338 -2.76396,-3.32557 4.70446,-3.90999 6.67395,8.03003 z"
         style="font-weight:bold;font-family:'DB Adman X';-inkscape-font-specification:'DB Adman X Bold'"
         id="path4064" />
      <path
         d="m 202.82836,134.12528 -6.73012,-8.09762 4.70446,-3.90999 6.73012,8.09762 z"
         style="font-weight:bold;font-family:'DB Adman X';-inkscape-font-specification:'DB Adman X Bold'"
         id="path4066" />
      <path
         d="m 258.77011,139.55761 q 1.08284,1.51634 1.67319,3.18996 0.59036,1.67363 0.7046,3.40646 0.12854,1.72261 -0.19656,3.44517 -0.3108,1.71235 -1.05478,3.30204 -0.74398,1.58969 -1.89867,2.99748 -1.14039,1.39756 -2.68533,2.50083 -1.44482,1.03176 -3.05918,1.64461 -1.61437,0.61284 -3.30021,0.82312 -1.68176,0.18576 -3.38185,-0.0474 -1.68579,-0.24336 -3.30615,-0.87905 -1.61626,-0.6602 -3.09966,-1.7393 -1.49361,-1.09339 -2.74197,-2.59953 l 0.95697,-5.7378 q -1.13612,-0.13908 -2.13329,-0.3558 -0.99716,-0.21672 -1.88804,-0.61733 -0.9011,-0.41491 -1.71226,-1.06685 -0.79686,-0.66216 -1.53237,-1.69212 -1.0522,-1.47343 -1.39938,-3.1695 -0.34719,-1.69608 -0.0487,-3.33486 0.30262,-1.66331 1.21619,-3.13651 0.92788,-1.48341 2.4013,-2.5356 0.77247,-0.55164 1.6001,-0.90505 0.82762,-0.35342 1.86161,-0.5086 1.02377,-0.16949 2.32746,-0.12847 1.30779,0.0165 3.01197,0.22511 l -1.1287,6.46524 q -1.1259,-0.12477 -1.81453,-0.15142 -0.67433,-0.0369 -1.0728,0.0101 -0.40868,0.0326 -0.61508,0.13684 -0.20231,0.0797 -0.35966,0.19204 -0.41485,0.29625 -0.65602,0.68447 -0.23708,0.3637 -0.31681,0.76624 -0.0654,0.39233 0.0306,0.79898 0.0858,0.39235 0.34116,0.74997 0.44948,0.62943 1.67551,0.83391 l 7.93034,1.33525 -1.52948,8.86825 q 0.89087,0.55182 1.90028,0.84619 0.9992,0.28006 2.03317,0.27609 1.03397,-0.004 2.05776,-0.32467 1.03809,-0.33092 1.98222,-1.00514 1.21593,-0.86831 1.94352,-2.0575 0.7419,-1.1994 0.97295,-2.5092 0.23106,-1.3098 -0.0406,-2.62784 -0.28184,-1.33234 -1.09907,-2.47674 l -11.33916,-15.87863 5.45023,-3.89208 z"
         style="font-weight:bold;font-family:'DB Adman X';-inkscape-font-specification:'DB Adman X Bold'"
         id="path4068" />
      <path
         d="m 289.19618,135.95446 -1.93732,-3.20396 q -0.19134,1.3482 -0.64539,2.56766 -0.46315,1.20443 -1.15299,2.2378 -0.67479,1.02427 -1.54618,1.85929 -0.84725,0.84097 -1.84003,1.44126 -1.36883,0.82768 -2.92272,1.31534 -1.52975,0.4936 -3.12107,0.6136 -1.57627,0.1109 -3.1599,-0.16405 -1.56859,-0.28404 -3.01194,-0.97247 -1.45245,-0.70347 -2.73454,-1.83862 -1.27614,-1.15929 -2.24934,-2.76879 l -10.76892,-17.80985 5.97172,-3.61086 10.76891,17.80985 q 0.70944,1.17328 1.6613,1.83023 0.9578,0.63282 2.03769,0.82206 1.07079,0.1742 2.20945,-0.0829 1.1446,-0.28126 2.22763,-0.93613 0.8574,-0.51844 1.53289,-1.33771 0.68144,-0.84342 1.14529,-1.84285 0.45476,-1.01448 0.69508,-2.14579 0.24626,-1.15545 0.24241,-2.28291 -0.013,-1.14251 -0.27288,-2.21784 -0.26902,-1.09038 -0.80564,-1.97787 l -9.12265,-15.08723 5.97171,-3.61086 16.79914,27.78276 z"
         style="font-weight:bold;font-family:'DB Adman X';-inkscape-font-specification:'DB Adman X Bold'"
         id="path4070" />
      <path
         d="m 312.95819,122.99719 -14.77987,-28.828585 6.20996,-3.183728 14.77987,28.828593 z m -11.09032,5.6858 -14.77987,-28.828585 6.20995,-3.183727 14.77988,28.828592 z"
         style="font-weight:bold;font-family:'DB Adman X';-inkscape-font-specification:'DB Adman X Bold'"
         id="path4072" />
      <path
         d="m 346.08829,94.002496 q 0.72682,1.696571 0.92276,3.448462 0.19595,1.751892 -0.079,3.476022 -0.26567,1.70104 -0.99065,3.31201 -0.72498,1.61097 -1.84,3.02569 -1.10578,1.39164 -2.58314,2.54088 -1.48429,1.13307 -3.26165,1.8945 -1.79351,0.76836 -3.63774,1.06123 -1.835,0.26979 -3.62146,0.1172 -1.79339,-0.16874 -3.45977,-0.75524 -1.65022,-0.59342 -3.08112,-1.56765 -1.43782,-0.99038 -2.57092,-2.34079 -1.14002,-1.36657 -1.85991,-3.04699 l -7.7389,-18.06444 6.41466,-2.748069 7.73889,18.064439 q 0.533,1.24416 1.51152,2.14446 0.97159,0.88415 2.22022,1.34364 1.24171,0.44333 2.66121,0.40891 1.4195,-0.0344 2.84139,-0.64356 1.35725,-0.58146 2.34527,-1.57843 1.00417,-1.00389 1.53983,-2.20865 0.54489,-1.22785 0.59123,-2.548085 0.0556,-1.343318 -0.47741,-2.58747 l -13.43578,-31.362331 6.41466,-2.748069 z"
         style="font-weight:bold;font-family:'DB Adman X';-inkscape-font-specification:'DB Adman X Bold'"
         id="path4074" />
      <path
         d="m 375.23938,97.270432 -2.93707,-8.581619 q -0.46105,-1.347114 -1.33521,-2.218418 -0.87985,-0.887935 -2.00605,-1.301394 -1.1319,-0.43009 -2.45456,-0.386149 -1.32835,0.02731 -2.67546,0.488361 -1.24733,0.4269 -2.26396,1.202162 -1.00568,0.752939 -1.62574,1.764058 -0.60912,0.988796 -0.77178,2.196372 -0.16266,1.207577 0.28132,2.504798 0.19922,0.582087 0.54242,1.096314 0.34321,0.514228 0.93633,0.998661 0.60975,0.47874 1.51405,0.949564 0.91525,0.448501 2.2533,0.938089 l -2.97631,5.960699 q -1.82302,-0.65803 -3.21363,-1.46405 -1.3963,-0.82266 -2.43242,-1.787166 -1.01948,-0.9702 -1.72341,-2.104133 -0.70963,-1.150565 -1.15361,-2.447786 -0.59766,-1.74626 -0.66134,-3.452323 -0.0694,-1.722694 0.33483,-3.310208 0.39851,-1.604144 1.20978,-3.033709 0.81127,-1.429564 1.94689,-2.617135 1.15225,-1.193263 2.58466,-2.110824 1.44903,-0.923254 3.0955,-1.486762 0.84819,-0.290292 1.80843,-0.470304 0.96024,-0.180011 1.92707,-0.232221 0.96682,-0.05221 1.87371,0.04615 0.91782,0.07604 1.66453,0.303531 l -0.39844,-1.164173 q -0.41027,-1.253021 -1.2726,-2.035477 -0.8457,-0.788149 -1.99902,-1.118008 -1.14239,-0.352182 -2.50356,-0.257903 -1.35023,0.07196 -2.74724,0.550084 -1.53005,0.523664 -2.55237,1.282295 -1.02232,0.758631 -1.58679,1.769304 -0.55354,0.988351 -0.66586,2.234437 -0.11801,1.229455 0.16055,2.694767 l -6.26991,2.145883 q -0.5684,-2.25791 -0.54502,-4.198143 0.04,-1.945924 0.53831,-3.584221 0.49261,-1.654927 1.39362,-2.98515 0.89531,-1.346855 2.05984,-2.395685 1.17546,-1.071153 2.54792,-1.838146 1.37246,-0.766992 2.81937,-1.262196 1.49679,-0.51228 3.15162,-0.725646 1.65484,-0.213366 3.32373,-0.05996 1.66319,0.136776 3.25729,0.668784 1.5941,0.532009 2.99173,1.521418 1.39195,0.972777 2.50428,2.431415 1.10664,1.442006 1.78968,3.437732 l 6.59703,19.27538 z"
         style="font-weight:bold;font-family:'DB Adman X';-inkscape-font-specification:'DB Adman X Bold'"
         id="path4076" />
      <path
         d="m 407.31056,80.648823 q 0.40312,1.511625 0.13704,3.037977 -0.25362,1.504838 -1.05642,2.792278 -0.7858,1.282911 -2.03699,2.25331 -1.25572,0.953415 -2.85227,1.379178 -1.22289,0.326116 -2.39596,0.293291 -1.17307,-0.03283 -2.24423,-0.365713 -1.07117,-0.332887 -2.00986,-0.919413 -0.92623,-0.60804 -1.6679,-1.410838 l -14.28421,-16.384335 5.67395,-3.896323 14.03623,16.068424 q 0.48917,0.469903 1.20252,0.279668 0.47556,-0.126823 0.69976,-0.514074 0.23665,-0.408765 0.12341,-0.833379 l -4.8238,-18.088549 -4.24614,1.132348 -1.66682,-6.250316 10.92107,-2.9124 z"
         style="font-weight:bold;font-family:'DB Adman X';-inkscape-font-specification:'DB Adman X Bold'"
         id="path4078" />
      <path
         d="m 433.75438,55.087319 q 2.41328,2.289729 3.15904,6.138059 l 3.87592,20.000957 -6.57495,1.274137 -1.7256,-8.904654 q -0.27088,-1.397824 -1.01654,-2.38135 -0.74899,-1.000783 -1.80742,-1.565596 -1.06177,-0.582069 -2.37785,-0.720943 -1.31943,-0.156131 -2.71725,0.114748 -1.29428,0.250815 -2.41145,0.86122 -1.09991,0.60706 -1.85682,1.505756 -0.73966,0.895351 -1.07063,2.051703 -0.33097,1.156352 -0.0701,2.502404 0.11705,0.603998 0.38607,1.160641 0.26901,0.556643 0.78966,1.118239 0.53791,0.558251 1.36864,1.149281 0.84466,0.570428 2.10241,1.239856 L 420.051,86.19412 q -1.71486,-0.903138 -2.98104,-1.893225 -1.26951,-1.007344 -2.16272,-2.105518 -0.87929,-1.118775 -1.42348,-2.356204 -0.54418,-1.23743 -0.81172,-2.617997 -0.35448,-1.82925 -0.1823,-3.527796 0.16885,-1.715803 0.78811,-3.23241 0.61927,-1.516606 1.62327,-2.803381 1.00065,-1.304032 2.29254,-2.306398 1.30913,-1.005709 2.85773,-1.699719 1.5625,-0.714611 3.27095,-1.045686 0.88012,-0.170554 1.85266,-0.233685 0.96921,-0.08039 1.93065,-0.01603 0.96145,0.06436 1.8461,0.286836 0.89857,0.201877 1.6235,0.616456 l -0.2341,-1.207996 q -0.26085,-1.346052 -0.98978,-2.243293 -0.73227,-0.914498 -1.81184,-1.403593 -1.07956,-0.489096 -2.42012,-0.56951 -1.34057,-0.08041 -2.82468,0.207186 -1.58765,0.307665 -2.70481,0.91807 -1.11717,0.610405 -1.81562,1.533582 -0.68454,0.902576 -0.96763,2.121268 -0.28642,1.201435 -0.2126,2.69116 l -6.50592,1.26076 q -0.2516,-2.314721 0.0391,-4.233192 0.30798,-1.921816 1.02744,-3.475745 0.71612,-1.571185 1.79196,-2.76445 1.07249,-1.210523 2.37052,-2.088745 1.31195,-0.898822 2.77706,-1.469225 1.46512,-0.570402 2.96649,-0.861346 1.65668,-0.321043 3.32178,-0.321425 1.68236,-0.0037 3.38933,0.489122 l 3.28278,-5.327305 5.87124,3.410139 z"
         style="font-weight:bold;font-family:'DB Adman X';-inkscape-font-specification:'DB Adman X Bold'"
         id="path4080" />
      <path
         d="m 469.15949,77.691159 -2.11316,-18.388746 q -0.19667,-1.711393 -1.00736,-3.069124 -0.81271,-1.375194 -2.12061,-2.286523 -1.29044,-0.913337 -3.01567,-1.298977 -1.72724,-0.403102 -3.77043,-0.168307 -1.78125,0.204693 -3.39089,1.132807 -1.59218,0.926107 -2.79437,2.320517 l 1.9181,1.602043 2.49846,21.74168 -9.93656,1.141868 -0.74051,-6.44392 3.00367,-0.345169 -1.49506,-13.010081 -3.85967,-3.25447 q 1.10726,-2.374356 2.56157,-4.346248 1.45432,-1.971891 3.21532,-3.430519 1.77847,-1.460635 3.85018,-2.371073 2.07172,-0.910437 4.42925,-1.181355 2.30514,-0.264897 4.43945,-0.01474 2.13231,0.232697 4.00044,0.938097 1.86613,0.687936 3.42916,1.817662 1.57847,1.110256 2.75649,2.58502 1.17803,1.474763 1.91665,3.283121 0.75408,1.788888 0.99289,3.867009 l 2.11316,18.388746 z"
         style="font-weight:bold;font-family:'DB Adman X';-inkscape-font-specification:'DB Adman X Bold'"
         id="path4082" />
      <path
         d="m 502.72555,75.691166 -6.97179,0.306321 -0.8881,-20.212921 q -0.27469,-6.251781 -6.31573,-5.986354 -0.75513,0.03318 -1.46897,0.205303 -0.71461,0.154564 -1.47187,0.539737 -0.74047,0.366841 -1.55563,1.03608 -0.81593,0.651677 -1.77448,1.661523 l -4.87652,-4.466032 q 1.44468,-1.559057 2.77356,-2.549984 1.3281,-1.008487 2.63961,-1.593964 1.32829,-0.603809 2.67201,-0.856394 1.36129,-0.253357 2.85399,-0.318942 3.31906,-0.14583 5.78648,0.748678 2.48422,0.876175 4.15559,2.474273 1.67059,1.580536 2.53973,3.741734 0.88671,2.160426 0.99164,4.548747 z"
         style="font-weight:bold;font-family:'DB Adman X';-inkscape-font-specification:'DB Adman X Bold'"
         id="path4084" />
      <path
         d="m 542.24933,67.313443 q -0.0614,2.02055 -0.92254,3.735407 -0.86111,1.714856 -2.28814,2.955264 -1.40892,1.223371 -3.29324,1.887115 -1.86676,0.664277 -3.94002,0.60124 -3.88297,-0.118062 -6.62205,-2.575487 -2.86575,2.28701 -6.76629,2.168414 -2.1084,-0.06411 -3.94892,-0.841103 -1.82295,-0.776463 -3.17252,-2.083706 -1.34903,-1.324814 -2.10436,-3.088818 -0.75533,-1.764005 -0.6939,-3.784556 l 0.70677,-23.245117 6.97529,0.212084 -0.70677,23.245117 q -0.0187,0.61495 0.19315,1.166565 0.22942,0.55215 0.63882,0.969081 0.40992,0.399361 1.00036,0.645935 0.59044,0.246573 1.31081,0.268476 0.68523,0.02083 1.27198,-0.189947 0.58676,-0.210781 1.02019,-0.584499 0.43397,-0.391289 0.69651,-0.928481 0.26254,-0.537191 0.28124,-1.152141 l 0.70676,-23.245117 6.9753,0.212084 -0.70677,23.245117 q -0.0187,0.61495 0.19315,1.166565 0.22942,0.552149 0.63881,0.969081 0.40993,0.399361 1.00036,0.645934 0.59044,0.246574 1.31081,0.268477 0.68523,0.02083 1.27199,-0.189947 0.60432,-0.210247 1.03775,-0.583966 0.45154,-0.390754 0.71408,-0.927945 0.28011,-0.536657 0.29881,-1.151608 l 0.70677,-23.245117 6.92258,0.210481 z"
         style="font-weight:bold;font-family:'DB Adman X';-inkscape-font-specification:'DB Adman X Bold'"
         id="path4086" />
      <path
         d="m 570.38222,79.564389 2.11611,-18.388406 q 0.19694,-1.711362 -0.2844,-3.217673 -0.47932,-1.523774 -1.54622,-2.7082 -1.04944,-1.182416 -2.6421,-1.949603 -1.59064,-0.78465 -3.6338,-1.019774 -1.78121,-0.20498 -3.55951,0.333529 -1.76084,0.540518 -3.24817,1.625643 l 1.50438,1.995617 -2.50196,21.741278 -9.93638,-1.143466 0.74155,-6.443801 3.00361,0.345653 1.49716,-13.009841 -3.02018,-4.045633 q 1.61732,-2.061036 3.48128,-3.651337 1.86395,-1.5903 3.91008,-2.611117 2.0636,-1.018807 4.2879,-1.435215 2.2243,-0.416408 4.58179,-0.145111 2.3051,0.265268 4.32691,0.993372 2.02382,0.71064 3.68307,1.82168 1.66126,1.093577 2.92704,2.548608 1.28526,1.439577 2.09777,3.143246 0.81251,1.703669 1.12137,3.632485 0.32833,1.913362 0.0892,3.991444 l -2.11611,18.388407 z"
         style="font-weight:bold;font-family:'DB Adman X';-inkscape-font-specification:'DB Adman X Bold'"
         id="path4088" />
      <path
         d="m 576.192,89.504711 q -0.18489,1.606584 -0.93136,2.865436 -0.74847,1.276315 -1.8873,2.100743 -1.14084,0.841891 -2.59816,1.205009 -1.45731,0.363118 -3.0639,0.178234 -1.46688,-0.168807 -2.87008,-0.73725 -1.42267,-0.55299 -2.48077,-1.506379 -1.07556,-0.955399 -1.64684,-2.29512 -0.58875,-1.34173 -0.39181,-3.053092 l -2.86391,-0.329575 0.74958,-6.513652 9.23786,1.063081 -0.69934,6.077081 q -0.0764,0.663589 0.33748,1.065096 0.41384,0.401507 1.00758,0.469834 0.59373,0.06833 1.08796,-0.228681 0.49423,-0.297008 0.57059,-0.960597 l 0.69934,-6.07708 6.42634,0.739535 z"
         style="font-weight:bold;font-family:'DB Adman X';-inkscape-font-specification:'DB Adman X Bold'"
         id="path4090" />
      <path
         d="m 612.72324,75.301446 q -0.36442,1.863133 -1.17852,3.369644 -0.79684,1.509884 -1.91922,2.669516 -1.119,1.142381 -2.51179,1.94463 -1.37554,0.805625 -2.91123,1.23961 -1.51845,0.43736 -3.14192,0.495952 -1.60959,0.07922 -3.17945,-0.227839 -1.13858,-0.222701 -2.24043,-0.724796 -1.08796,-0.48147 -2.09081,-1.214959 -0.9856,-0.730115 -1.83433,-1.702127 -0.84536,-0.989264 -1.48821,-2.189676 l -0.71872,3.674512 -6.84874,-1.339581 6.23226,-31.863018 6.84873,1.339581 -3.38438,17.302981 q -0.20245,1.035074 -0.0771,2.134259 0.12531,1.099184 0.50565,2.176603 0.3837,1.060168 0.99467,2.05732 0.63159,0.983275 1.40718,1.779781 0.77897,0.779254 1.69143,1.333862 0.93308,0.540732 1.9164,0.733065 1.24209,0.242946 2.3964,0.1105 1.17494,-0.146323 2.12072,-0.677782 0.9664,-0.545336 1.63127,-1.472054 0.66824,-0.943968 0.93143,-2.289564 l 3.99512,-20.425454 6.84874,1.33958 z"
         style="font-weight:bold;font-family:'DB Adman X';-inkscape-font-specification:'DB Adman X Bold'"
         id="path4092" />
      <path
         d="m 590.13623,45.270501 1.17424,-6.003428 27.4122,5.361696 -1.17424,6.003428 z"
         style="font-weight:bold;font-family:'DB Adman X';-inkscape-font-specification:'DB Adman X Bold'"
         id="path4094" />
      <path
         d="m 650.39421,80.650661 q -0.60129,2.14992 -1.6651,4.060968 -1.05907,1.894118 -2.49674,3.445067 -1.416,1.538756 -3.19166,2.666628 -1.75873,1.132607 -3.77152,1.73784 -1.99586,0.609968 -4.21466,0.646512 -2.20186,0.04128 -4.52107,-0.607356 -2.45463,-0.686512 -4.4321,-1.969676 -1.96054,-1.27843 -3.43573,-2.986953 -1.45354,-1.720716 -2.37295,-3.784873 -0.91942,-2.064156 -1.25795,-4.312652 -0.3338,-2.265424 -0.0596,-4.616342 0.27893,-2.367846 1.21263,-4.662084 l 16.57301,4.635138 -1.70444,6.094263 -9.36147,-2.618214 q 0.14057,1.390012 0.64267,2.662104 0.50683,1.255164 1.34334,2.31049 0.84125,1.038397 1.99252,1.816702 1.15127,0.778305 2.60713,1.185477 1.89599,0.530271 3.72945,0.239935 1.83819,-0.307264 3.39248,-1.296269 1.55903,-1.005932 2.7475,-2.644829 1.18847,-1.638896 1.7945,-3.805745 0.61549,-2.200706 0.47135,-4.230561 -0.12249,-2.04205 -0.93818,-3.693893 -0.79404,-1.664037 -2.22779,-2.868144 -1.41681,-1.199372 -3.36359,-1.743847 -1.32042,-0.369296 -2.68203,-0.330298 -1.35687,0.02207 -2.71834,0.517422 -1.35673,0.478424 -2.69368,1.473457 -1.33221,0.978105 -2.64191,2.52834 l -5.34477,-4.12321 q 1.81326,-2.17601 3.89823,-3.691943 2.08497,-1.515933 4.355,-2.323014 2.27002,-0.807081 4.68177,-0.880922 2.41649,-0.09077 4.88805,0.600477 2.40385,0.672308 4.29395,1.87628 1.91176,1.191777 3.31379,2.770321 1.40677,1.561616 2.28415,3.449743 0.89432,1.892861 1.28493,3.955144 0.39535,2.045353 0.27953,4.221536 -0.0942,2.163989 -0.6907,4.296981 z"
         style="font-weight:bold;font-family:'DB Adman X';-inkscape-font-specification:'DB Adman X Bold'"
         id="path4096" />
      <path
         d="m 670.55628,105.14532 -6.56919,-2.35489 6.8274,-19.045665 q 2.11169,-5.890754 -3.58049,-7.931264 -0.71153,-0.255063 -1.43741,-0.365887 -0.71995,-0.127371 -1.56666,-0.05742 -0.82422,0.05933 -1.83202,0.370302 -1.00187,0.294425 -2.2713,0.866406 l -2.82368,-5.979354 q 1.92724,-0.896373 3.53229,-1.310694 1.61098,-0.430867 3.04651,-0.476469 1.45801,-0.05622 2.79738,0.218507 1.35592,0.280656 2.76242,0.784852 3.1274,1.121094 5.07278,2.882853 1.96787,1.751143 2.91014,3.8629 0.9482,2.09521 0.93481,4.424588 0.003,2.33531 -0.80356,4.58571 z"
         style="font-weight:bold;font-family:'DB Adman X';-inkscape-font-specification:'DB Adman X Bold'"
         id="path4098" />
      <path
         d="m 702.72962,118.92628 -6.38805,-2.80937 7.45154,-16.943607 q 0.6935,-1.576898 0.67841,-3.158174 0.008,-1.59029 -0.64541,-3.029862 -0.63741,-1.432496 -1.93251,-2.635759 -1.27193,-1.212277 -3.15456,-2.040226 -3.50779,-1.542674 -7.09872,-0.145456 l 0.81971,2.415211 -8.78192,19.968683 -6.38804,-2.80937 7.8832,-17.925147 -1.6909,-4.757044 q 2.10552,-1.512795 4.33986,-2.488867 2.25043,-0.968995 4.52285,-1.333028 2.28851,-0.356957 4.55267,-0.09092 2.28026,0.273111 4.45252,1.228436 2.10789,0.92702 3.80846,2.212588 1.72374,1.276554 2.98094,2.828 1.26427,1.535356 2.04396,3.299271 0.78677,1.747824 1.05999,3.615446 0.2893,1.874699 0.0309,3.815786 -0.25129,1.924989 -1.09339,3.839799 z"
         style="font-weight:bold;font-family:'DB Adman X';-inkscape-font-specification:'DB Adman X Bold'"
         id="path4100" />
      <path
         d="m 726.40685,131.33064 -6.17587,-3.24935 9.42067,-17.90536 q 2.91378,-5.53806 -2.43761,-8.35362 -0.66892,-0.35195 -1.37221,-0.56307 -0.6951,-0.22668 -1.54328,-0.27568 -0.82443,-0.0564 -1.86579,0.11078 -1.03317,0.1516 -2.37005,0.54067 l -1.96084,-6.315136 q 2.03356,-0.6184 3.68074,-0.804474 1.65538,-0.201631 3.0832,-0.04628 1.45157,0.14798 2.73944,0.607087 1.30343,0.467293 2.62572,1.162998 2.94015,1.546921 4.62039,3.563131 1.70399,2.008844 2.34206,4.231504 0.64626,2.20711 0.30765,4.51179 -0.32306,2.31286 -1.43619,4.42852 z"
         style="font-weight:bold;font-family:'DB Adman X';-inkscape-font-specification:'DB Adman X Bold'"
         id="path4102" />
      <path
         d="m 767.38951,123.76601 q 0.35537,2.20227 -0.078,4.31027 -0.43334,2.10801 -1.66112,4.09755 l -10.28382,16.66431 -5.93871,-3.66488 10.28381,-16.66431 q 0.72005,-1.1668 0.86338,-2.5036 0.16751,-1.34254 -0.19016,-2.63737 -0.34271,-1.28559 -1.18769,-2.42672 -0.83002,-1.13189 -2.08658,-1.90733 -1.31639,-0.81237 -2.71525,-1.05596 -1.39887,-0.24359 -2.70165,0.0266 -1.30278,0.27014 -2.4127,1.0311 -1.1007,0.74599 -1.82075,1.91279 l 6.05838,3.73873 -3.36024,5.44507 -6.05838,-3.73873 -6.92358,11.21924 -5.93871,-3.66488 10.28381,-16.66431 q 0.95084,-1.54077 2.27087,-2.70912 1.32002,-1.16835 2.87906,-1.92068 1.56827,-0.76729 3.28801,-1.11061 1.74393,-0.34904 3.53335,-0.23624 1.79865,0.0978 3.57371,0.63555 1.79003,0.54694 3.45047,1.57163 2.61783,1.6155 4.25941,3.90921 l 5.59977,-1.543 2.00828,6.48593 z"
         style="font-weight:bold;font-family:'DB Adman X';-inkscape-font-specification:'DB Adman X Bold'"
         id="path4104" />
      <path
         d="m 770.87635,159.86356 18.87063,-26.33309 5.6724,4.06492 -18.87063,26.33309 z m -10.13031,-7.25951 18.87063,-26.33309 5.6724,4.06492 -18.87063,26.33309 z"
         style="font-weight:bold;font-family:'DB Adman X';-inkscape-font-specification:'DB Adman X Bold'"
         id="path4106" />
      <path
         d="m 797.32516,180.59114 5.76538,-7.00222 q 0.90503,-1.09919 1.18826,-2.30048 0.29441,-1.21486 0.0556,-2.39056 -0.2276,-1.18926 -0.95884,-2.29228 -0.72007,-1.11658 -1.81926,-2.02161 -1.01776,-0.83799 -2.21109,-1.29683 -1.16858,-0.46123 -2.35468,-0.45872 -1.16135,1.1e-4 -2.27477,0.49509 -1.11341,0.49499 -1.98492,1.55346 -0.39106,0.47496 -0.64882,1.0369 -0.25776,0.56195 -0.35905,1.32103 -0.0877,0.77025 -0.0142,1.78713 0.0983,1.01448 0.38336,2.41047 l -6.63602,0.5929 q -0.39609,-1.89723 -0.43935,-3.50397 -0.0321,-1.62031 0.24555,-3.00837 0.2912,-1.37689 0.88732,-2.57103 0.6073,-1.20771 1.47881,-2.26618 1.17318,-1.42487 2.59226,-2.37405 1.43024,-0.96275 2.99383,-1.45139 1.57476,-0.50221 3.21742,-0.56144 1.64265,-0.0592 3.24942,0.28463 1.62035,0.35503 3.15293,1.0932 1.54615,0.74934 2.8896,1.85549 0.69208,0.56983 1.34905,1.29292 0.65698,0.72308 1.2086,1.51882 0.55162,0.79573 0.94361,1.61941 0.41673,0.82129 0.61475,1.57635 l 0.78213,-0.94991 q 0.85156,-1.00659 1.06536,-2.1512 0.22737,-1.13344 -0.0968,-2.28838 -0.29943,-1.15734 -1.09373,-2.26673 -0.76956,-1.11179 -1.90945,-2.05034 -1.24846,-1.02793 -2.43061,-1.50034 -1.18216,-0.47241 -2.33872,-0.42281 -1.13181,0.0472 -2.25161,0.60525 -1.10862,0.54447 -2.21001,1.55028 l -5.11596,-4.21229 q 1.62413,-1.66836 3.28825,-2.66625 1.67768,-0.98672 3.33386,-1.4219 1.66736,-0.44874 3.27251,-0.37945 1.61632,0.0557 3.12014,0.49696 1.52856,0.43884 2.90151,1.20496 1.37294,0.76612 2.55355,1.73819 1.22132,1.00559 2.27105,2.30253 1.04974,1.29694 1.79459,2.79825 0.75603,1.48773 1.13931,3.12397 0.38329,1.63623 0.27411,3.34515 -0.098,1.69535 -0.75634,3.40751 -0.64716,1.6986 -1.98794,3.32702 l -12.94974,15.72785 z"
         style="font-weight:bold;font-family:'DB Adman X';-inkscape-font-specification:'DB Adman X Bold'"
         id="path4108" />
      <path
         d="m 823.70695,178.2278 q -0.956,-0.8821 -1.47288,-1.98089 -0.49205,-1.09978 -0.56283,-2.24138 -0.0459,-1.14261 0.33239,-2.25251 0.39024,-1.12282 1.21273,-2.01422 l 2.38405,-2.58379 4.92211,4.54161 -2.09796,2.27373 4.59914,4.2436 -4.29128,4.65081 z m -11.13349,12.06627 q -0.956,-0.88209 -1.47288,-1.98088 -0.49205,-1.09978 -0.56283,-2.24139 -0.0459,-1.1426 0.33238,-2.2525 0.39025,-1.12282 1.21274,-2.01422 l 2.33637,-2.53211 4.92211,4.5416 -2.05028,2.22206 4.59914,4.2436 -4.29128,4.65081 z"
         style="font-weight:bold;font-family:'DB Adman X';-inkscape-font-specification:'DB Adman X Bold'"
         id="path4110" />
      <path
         d="m 856.18364,199.61234 q -0.6001,3.2721 -3.41654,5.99854 l -14.63788,14.17016 -4.65818,-4.81194 6.51695,-6.30871 q 1.02301,-0.99032 1.43967,-2.15209 0.4293,-1.174 0.32439,-2.36911 -0.0923,-1.20733 -0.69471,-2.38564 -0.5898,-1.19055 -1.58013,-2.21356 -0.91696,-0.94723 -2.03842,-1.54971 -1.10924,-0.58985 -2.27545,-0.73309 -1.15398,-0.13062 -2.30341,0.22366 -1.14943,0.35427 -2.13455,1.30791 -0.44204,0.42792 -0.76142,0.95728 -0.31937,0.52936 -0.50547,1.27221 -0.17387,0.75548 -0.21528,1.77417 -0.0165,1.0191 0.10959,2.43831 l -6.7111,-0.10896 q -0.18,-1.92977 -0.0421,-3.53116 0.15051,-1.61362 0.58263,-2.96161 0.45697,-1.34759 1.19636,-2.47926 0.73938,-1.13167 1.74976,-2.10976 1.33876,-1.29598 2.85566,-2.07938 1.52953,-0.79563 3.13818,-1.10516 1.60866,-0.30952 3.23491,-0.17124 1.63888,0.12606 3.1841,0.66083 1.55745,0.5474 2.98457,1.46562 1.45197,0.91862 2.66236,2.16897 0.62354,0.64412 1.20757,1.42434 0.59666,0.76799 1.06783,1.60854 0.47118,0.84054 0.76795,1.70311 0.32164,0.86298 0.37026,1.69666 l 0.88408,-0.85583 q 0.98512,-0.95364 1.33863,-2.05428 0.36615,-1.11287 0.18627,-2.28433 -0.17988,-1.17146 -0.84466,-2.33836 -0.66477,-1.1669 -1.71622,-2.25305 -1.12481,-1.16194 -2.24627,-1.76442 -1.12147,-0.60248 -2.27626,-0.68338 -1.12993,-0.0805 -2.30543,0.34794 -1.16286,0.41621 -2.37048,1.29165 l -4.60927,-4.76141 q 1.80162,-1.47493 3.56748,-2.27916 1.77809,-0.79159 3.47273,-1.03756 1.70728,-0.2582 3.29442,-0.009 1.59978,0.2373 3.04437,0.84503 1.46945,0.60812 2.74743,1.52392 1.27798,0.9158 2.34166,2.01459 1.17371,1.21246 2.08341,2.6071 0.92193,1.40726 1.44132,3.10635 l 6.25551,-0.1595 0.34986,6.78072 z"
         style="font-weight:bold;font-family:'DB Adman X';-inkscape-font-specification:'DB Adman X Bold'"
         id="path4112" />
      <path
         d="m 845.08535,174.17184 4.39515,-4.25471 19.42742,20.06868 -4.39515,4.25471 z"
         style="font-weight:bold;font-family:'DB Adman X';-inkscape-font-specification:'DB Adman X Bold'"
         id="path4114" />
      <path
         d="m 870.23556,180.18668 7.56522,-7.32349 4.25472,4.39515 -7.56522,7.32349 z"
         style="font-weight:bold;font-family:'DB Adman X';-inkscape-font-specification:'DB Adman X Bold'"
         id="path4116" />
      <path
         d="m 862.16132,236.91603 q -1.19625,1.00822 -2.69067,1.41716 -1.46966,0.41106 -2.97636,0.23265 -1.49537,-0.16497 -2.90606,-0.88409 -1.39724,-0.73044 -2.4621,-1.99389 -0.81564,-0.96775 -1.28527,-2.04321 -0.46963,-1.07546 -0.62436,-2.18644 -0.15474,-1.11097 -0.0236,-2.21004 0.15594,-1.09695 0.56667,-2.1098 l 8.74559,-19.89974 5.94091,3.47572 -8.56528,19.54088 q -0.21699,0.64266 0.2588,1.20718 0.31719,0.37634 0.76304,0.41437 0.47062,0.0401 0.80664,-0.24306 l 14.31466,-12.06463 -2.83207,-3.36025 4.94628,-4.16881 7.28409,8.64256 z"
         style="font-weight:bold;font-family:'DB Adman X';-inkscape-font-specification:'DB Adman X Bold'"
         id="path4118" />
      <path
         d="m 868.08951,256.76212 26.03868,-19.27483 4.15199,5.60899 -26.03869,19.27483 z m -7.41501,-10.01705 26.03869,-19.27483 4.15198,5.60899 -26.03868,19.27482 z"
         style="font-weight:bold;font-family:'DB Adman X';-inkscape-font-specification:'DB Adman X Bold'"
         id="path4120" />
      <path
         d="m 903.50818,280.43769 q -2.03967,1.31307 -4.18216,2.04426 -2.1182,0.73645 -4.20823,0.93213 -2.06573,0.20095 -4.05471,-0.12835 -1.97946,-0.31453 -3.74165,-1.10341 -1.74742,-0.79839 -3.21946,-2.04583 -1.46253,-1.23267 -2.52821,-2.88805 -0.85737,-1.26685 -1.43289,-2.77786 -0.5808,-1.48671 -0.82164,-3.19226 -0.22607,-1.71507 -0.10268,-3.63421 0.1234,-1.91913 0.68392,-4.03605 l 6.34613,1.05736 q -0.74277,2.84052 -0.45721,5.10264 0.30035,2.25261 1.31845,3.8341 0.90919,1.37982 2.2859,2.18691 1.38622,0.82186 3.05086,1.00456 1.68893,0.18797 3.56436,-0.30858 1.89973,-0.49128 3.83594,-1.73775 1.92143,-1.23695 3.13081,-2.76811 1.23368,-1.5259 1.747,-3.13161 0.51332,-1.6057 0.3243,-3.19828 -0.18902,-1.59258 -1.08343,-2.98192 -1.01811,-1.58149 -2.94003,-2.74837 -1.89762,-1.16162 -4.76224,-1.6171 l 1.66475,-6.2145 q 4.10894,0.69971 6.96702,2.47645 2.88237,1.78202 4.52846,4.339 1.13857,1.67118 1.71327,3.53811 0.58421,1.88172 0.60659,3.83244 0.0224,1.95073 -0.49177,3.91236 -0.49937,1.95212 -1.54801,3.79792 -1.03386,1.83628 -2.58642,3.48385 -1.55257,1.64756 -3.60702,2.97015 z"
         style="font-weight:bold;font-family:'DB Adman X';-inkscape-font-specification:'DB Adman X Bold'"
         id="path4122" />
      <path
         d="m 903.32938,313.61869 17.59927,-9.54598 q 1.39063,-0.75429 2.13568,-1.99831 0.75344,-1.22856 0.90975,-2.67317 0.18015,-1.43754 -0.20907,-2.96621 -0.36538,-1.52159 -1.22784,-2.85356 -0.86245,-1.33196 -2.1942,-2.34939 -1.32338,-1.00197 -3.05215,-1.42409 -1.70494,-0.41506 -3.80297,-0.11697 -2.08964,0.31355 -4.48462,1.61261 -1.93144,1.04762 -3.20971,2.34089 -1.27827,1.29326 -1.92406,2.68341 -0.63741,1.40561 -0.60568,2.82821 0.0317,1.42261 0.73573,2.72053 0.19276,0.35539 0.43057,0.64635 0.24619,0.30641 0.60054,0.55415 0.36273,0.26319 0.88129,0.48186 0.54238,0.22574 1.29664,0.43654 l -1.86609,6.07153 q -1.48468,-0.41453 -2.57915,-0.92075 -1.09447,-0.50621 -1.92495,-1.11561 -0.81503,-0.61779 -1.41505,-1.39219 -0.60709,-0.75057 -1.10995,-1.67766 -1.65944,-3.0594 -1.79571,-5.96511 -0.13626,-2.9057 0.94162,-5.4901 1.08627,-2.56895 3.20127,-4.71601 2.11499,-2.14706 4.97352,-3.69755 2.64221,-1.43315 5.10006,-2.02641 2.48169,-0.58618 4.71067,-0.49537 2.23737,0.10627 4.2194,0.81097 1.99041,0.72016 3.66551,1.8913 1.68349,1.1866 3.02521,2.73854 1.36556,1.55902 2.32937,3.33594 0.85487,1.57606 1.36142,3.32104 0.53038,1.75205 0.65247,3.5256 0.12209,1.77354 -0.1738,3.51383 -0.29589,1.74029 -1.06975,3.29989 -0.75002,1.56667 -2.00314,2.90629 -1.23768,1.33124 -3.03005,2.30344 l -17.72288,9.61302 z"
         style="font-weight:bold;font-family:'DB Adman X';-inkscape-font-specification:'DB Adman X Bold'"
         id="path4124" />
      <path
         d="m 917.31047,343.06968 8.2825,-3.6974 q 1.30016,-0.58041 2.08926,-1.52943 0.80516,-0.95618 1.1156,-2.11502 0.32648,-1.16601 0.1637,-2.47934 -0.14674,-1.32051 -0.72714,-2.62067 -0.53742,-1.20385 -1.40102,-2.14659 -0.84038,-0.93385 -1.9032,-1.4604 -1.03959,-0.51767 -2.25691,-0.571 -1.21731,-0.0533 -2.46932,0.50558 -0.5618,0.25079 -1.04305,0.63888 -0.48126,0.38809 -0.91035,1.02239 -0.42193,0.65036 -0.80947,1.59337 -0.36432,0.95189 -0.73151,2.32856 l -6.20435,-2.42784 q 0.49131,-1.87484 1.16893,-3.33234 0.69366,-1.46466 1.56102,-2.58337 0.87452,-1.10265 1.94051,-1.90577 1.08203,-0.81028 2.33404,-1.36919 1.68539,-0.75238 3.3788,-0.96933 1.70946,-0.22412 3.32691,0.0356 1.6335,0.25254 3.13027,0.93187 1.49677,0.67934 2.78171,1.70348 1.29211,1.0402 2.33485,2.38422 1.04991,1.36007 1.75929,2.94916 0.36544,0.81862 0.63113,1.75877 0.2657,0.94014 0.4047,1.89835 0.139,0.9582 0.12265,1.87026 0.007,0.92094 -0.15251,1.68509 l 1.12359,-0.50158 q 1.21102,-0.52137 1.9127,-1.45061 0.70885,-0.91319 0.93358,-2.09152 0.24796,-1.16945 0.0316,-2.51661 -0.19317,-1.33827 -0.79507,-2.68659 -0.65923,-1.47672 -1.50678,-2.42662 -0.84755,-0.94991 -1.90492,-1.42114 -1.03415,-0.46235 -2.28529,-0.46208 -1.23508,-0.007 -2.66938,0.40239 l -2.7014,-6.05136 q 2.1976,-0.76928 4.13207,-0.9206 1.94163,-0.13526 3.61812,0.21359 1.69254,0.34169 3.09845,1.11934 1.42195,0.77048 2.57132,1.8359 1.17259,1.0743 2.05997,2.37217 0.88739,1.29787 1.51079,2.69434 0.64489,1.44462 1.00631,3.07354 0.36142,1.62893 0.35881,3.30485 0.0135,1.66875 -0.37295,3.30426 -0.3864,1.6355 -1.24602,3.1165 -0.84358,1.47384 -2.1962,2.71292 -1.33657,1.23191 -3.26273,2.09177 l -18.60352,8.30482 z"
         style="font-weight:bold;font-family:'DB Adman X';-inkscape-font-specification:'DB Adman X Bold'"
         id="path4126" />
      <path
         d="m 946.52838,318.61116 q 0.5873,0.0651 1.33168,0.13703 0.75326,0.0487 1.51369,0.11353 0.76931,0.0416 1.46725,0.0958 0.714,0.047 1.23165,0.0854 0.26771,-0.004 0.59418,-0.092 0.34253,-0.0952 0.60996,-0.27229 0.26026,-0.19319 0.39011,-0.4629 0.12268,-0.28577 -0.0421,-0.65495 -0.25079,-0.5618 -0.765,-0.67875 l 1.59917,-4.35216 q 1.21444,0.47811 2.14224,1.39219 0.92781,0.91407 1.44373,2.06977 0.47292,1.05939 0.58555,2.26037 0.11263,1.20098 -0.19437,2.28128 -0.29094,1.07314 -1.03562,1.90607 -0.73579,0.80972 -1.97575,1.09375 l -0.71543,0.16538 3.72606,8.3467 -4.92777,2.19981 z"
         style="font-weight:bold;font-family:'DB Adman X';-inkscape-font-specification:'DB Adman X Bold'"
         id="path4128" />
      <path
         d="m 947.993,378.28992 q -2.10298,0.74913 -4.27767,0.98266 -2.15812,0.22764 -4.25435,-0.0519 -2.07377,-0.26892 -4.0194,-1.06864 -1.93973,-0.78317 -3.59527,-2.07811 -1.64963,-1.27837 -2.95949,-3.06964 -1.30396,-1.77471 -2.11208,-4.04328 -0.8553,-2.40103 -0.94798,-4.75652 -0.0868,-2.33892 0.45775,-4.52952 0.56698,-2.17995 1.72262,-4.12174 1.15564,-1.9418 2.79695,-3.51546 1.65788,-1.57956 3.73634,-2.71182 2.09502,-1.13816 4.50764,-1.69903 l 5.77479,16.21113 -5.96119,2.12352 -3.26197,-9.15705 q -1.05429,0.91671 -1.8037,2.06069 -0.73286,1.13809 -1.11229,2.43018 -0.36287,1.28619 -0.33444,2.67557 0.0284,1.38938 0.53571,2.81344 0.66065,1.8546 1.95551,3.18471 1.31142,1.32421 3.01592,2.02324 1.72106,0.69312 3.74536,0.71842 2.02431,0.0253 4.14384,-0.72973 2.15266,-0.76683 3.72753,-2.05558 1.59732,-1.27809 2.47601,-2.8973 0.90114,-1.60856 1.05756,-3.47431 0.16232,-1.8492 -0.51603,-3.75347 -0.46009,-1.29159 -1.27745,-2.38127 -0.8008,-1.09559 -1.99083,-1.9219 -1.17348,-0.83221 -2.75752,-1.35022 -1.56748,-0.52391 -3.58929,-0.69938 l 0.28455,-6.74437 q 2.82346,0.22579 5.26451,1.0543 2.44105,0.82851 4.40985,2.21711 1.9688,1.3886 3.42044,3.31596 1.4682,1.92147 2.32941,4.33907 0.83761,2.35136 0.94457,4.58979 0.12941,2.24909 -0.35115,4.30495 -0.464,2.04996 -1.5001,3.85587 -1.0302,1.82248 -2.48937,3.33125 -1.44262,1.50288 -3.28698,2.66371 -1.8219,1.17149 -3.90831,1.91472 z"
         style="font-weight:bold;font-family:'DB Adman X';-inkscape-font-specification:'DB Adman X Bold'"
         id="path4130" />
      <path
         d="m 952.59424,412.76706 q -1.83311,0.49374 -3.5442,0.42667 -1.70651,-0.0501 -3.24203,-0.54673 -1.51855,-0.50122 -2.85239,-1.39807 -1.32926,-0.87988 -2.39547,-2.06728 -1.06163,-1.17042 -1.82952,-2.60201 -0.78028,-1.41004 -1.1963,-2.9546 -0.30173,-1.12023 -0.33646,-2.33059 -0.0471,-1.18881 0.16948,-2.41224 0.22119,-1.20646 0.71983,-2.39664 0.51561,-1.19474 1.31,-2.30072 l -3.6153,0.97375 -1.81494,-6.73837 31.34956,-8.44381 1.81494,6.73837 -17.02415,4.58535 q -1.0184,0.2743 -1.94993,0.87109 -0.93153,0.59679 -1.73117,1.41292 -0.78266,0.81155 -1.40863,1.79936 -0.60442,1.00021 -0.97773,2.04739 -0.35634,1.04262 -0.45219,2.1061 -0.0743,1.07588 0.18627,2.04335 0.32916,1.22208 0.95664,2.19996 0.64902,0.99028 1.54281,1.60516 0.91535,0.62727 2.0402,0.81582 1.14183,0.18398 2.46574,-0.1726 l 20.09631,-5.41282 1.81494,6.73837 z"
         style="font-weight:bold;font-family:'DB Adman X';-inkscape-font-specification:'DB Adman X Bold'"
         id="path4132" />
    </g>
    <g
       aria-label="DEPARTMENT OF CLIMATE CHANGE AND ENVIRONMENT"
       id="text3794"
       style="font-weight:bold;font-size:75px;line-height:1.5;font-family:'DB Adman X';-inkscape-font-specification:'DB Adman X Bold';text-align:center;letter-spacing:3.51px;text-anchor:middle;opacity:1;fill:#ffffff;fill-rule:evenodd;stroke-width:3.482;stroke-linecap:square;stroke-linejoin:round;paint-order:stroke fill markers"
       transform="matrix(0.29292589,0,0,0.29292589,-0.05283667,-0.0516345)">
      <path
         d="m 43.127426,537.38437 q -3.039159,0.0488 -5.68759,-0.65951 -2.648431,-0.70831 -4.867753,-2.06446 -2.219029,-1.33784 -3.971451,-3.26918 -1.73382,-1.91334 -2.96236,-4.2926 -1.210231,-2.37956 -1.877683,-5.17072 -0.648851,-2.77314 -0.69794,-5.83061 l -0.144329,-8.98932 39.600609,-0.63581 0.144329,8.98932 q 0.04997,3.11239 -0.527533,5.92354 -0.558902,2.82916 -1.710427,5.24664 -1.133217,2.41718 -2.823028,4.38548 -1.671502,1.96801 -3.865041,3.35838 -2.193244,1.40868 -4.854482,2.18393 -2.661237,0.77524 -5.755321,0.82492 z m -0.120519,-7.50636 q 2.947618,-0.0473 5.311221,-1.1108 2.363604,-1.06347 3.999666,-2.95765 1.636356,-1.87588 2.491423,-4.50835 0.85536,-2.61417 0.804213,-5.79979 l -0.0241,-1.50128 -25.576538,0.41065 0.0241,1.50127 q 0.05056,3.14901 0.989401,5.73437 0.939136,2.60367 2.616856,4.44465 1.696028,1.84068 4.055937,2.82831 2.378511,1.00565 5.307821,0.95862 z"
         id="path3967" />
      <path
         d="m 23.967274,544.73501 39.461338,-3.37865 1.905664,22.25744 -7.023863,0.60137 -1.273046,-14.86869 -7.625908,0.65292 1.235558,14.43085 -6.950888,0.59513 -1.235557,-14.43085 -10.909793,0.93409 1.273047,14.8687 -6.950888,0.59513 z"
         id="path3969" />
      <path
         d="m 57.77265,593.22987 q -2.029976,0.29138 -3.734051,0.018 -1.701474,-0.25522 -3.097688,-0.96122 -1.396214,-0.70601 -2.500089,-1.82393 -1.101273,-1.09981 -1.915325,-2.51831 -0.81145,-1.40038 -1.345998,-3.06248 -0.513821,-1.64658 -0.771381,-3.44094 l -0.202925,-1.41373 -16.25793,2.33365 -1.053653,-7.34054 39.203905,-5.62729 1.256578,8.75427 q 0.400648,2.79122 0.08125,5.33433 -0.301275,2.5405 -1.454847,4.5559 -1.132845,2.03093 -3.156926,3.39436 -2.02408,1.36343 -5.050919,1.7979 z m -0.981153,-7.35094 q 1.304984,-0.18732 2.109933,-0.76532 0.807551,-0.55987 1.216097,-1.45093 0.408547,-0.89106 0.459541,-2.08227 0.0536,-1.17308 -0.14933,-2.58681 l -0.182113,-1.26874 -9.062391,1.30081 0.213332,1.48623 q 0.195121,1.35936 0.607566,2.42855 0.433172,1.08471 1.088785,1.78603 0.658214,0.71944 1.569916,1.01404 0.932428,0.31011 2.128664,0.13841 z"
         id="path3971" />
      <path
         d="m 36.215536,626.71481 9.565696,-6.57761 -2.696458,-12.60545 -11.419511,-2.08863 -1.677626,-7.8426 42.211172,7.99136 0.97287,4.54799 -35.309159,24.27429 z m 23.240153,-16.09387 -9.184193,-1.70545 1.505267,7.03685 z"
         id="path3973" />
      <path
         d="m 44.714561,657.644 11.50634,-14.31004 -14.460077,4.24246 -2.046482,-6.97528 38.003824,-11.14997 2.448561,8.34573 q 0.54126,1.84485 0.818028,3.63372 0.281922,1.80644 0.192987,3.45453 -0.08378,1.66566 -0.583868,3.14815 -0.477363,1.4949 -1.467087,2.73939 -0.966999,1.25691 -2.496964,2.22101 -1.50724,0.97652 -3.650775,1.60541 -2.090825,0.61343 -3.965222,0.53364 -1.869242,-0.0622 -3.491126,-0.71223 -1.616729,-0.63244 -2.975791,-1.81754 -1.353906,-1.16753 -2.378922,-2.77503 l -12.979091,16.24964 z m 26.262511,-10.12863 q 1.423167,-0.41755 2.134604,-1.17966 0.729007,-0.76728 0.938392,-1.74466 0.226956,-0.98254 0.04791,-2.11312 -0.161472,-1.13573 -0.501693,-2.29535 l -0.505177,-1.72185 -8.85526,2.59805 0.592809,2.02055 q 0.314447,1.07176 0.829424,2.04653 0.514976,0.97477 1.261629,1.6335 0.746653,0.65873 1.751917,0.8981 1.005264,0.23937 2.305441,-0.14209 z"
         id="path3975" />
      <path
         d="m 84.468701,673.19628 -30.67071,11.13485 -2.536897,-6.98783 30.670711,-11.13485 -3.174245,-8.74339 6.557543,-2.38068 8.879137,24.45739 -6.557542,2.38069 z"
         id="path3977" />
      <path
         d="m 74.748388,733.18046 16.286491,-11.96096 3.0633,-1.9725 -3.715674,0.37805 -21.49256,0.81163 -1.881432,-4.09265 14.823264,-16.06449 2.594636,-2.42209 -3.349511,0.95538 -20.018609,4.58778 -3.13572,-6.82108 39.495851,-8.90655 1.942616,4.22574 -19.247637,20.81904 28.364167,-0.98798 1.94262,4.22574 -32.513138,24.09594 z"
         id="path3979" />
      <path
         d="m 81.339779,745.54941 34.482031,-19.48338 10.98924,19.44895 -6.13758,3.46791 -7.34117,-12.99253 -6.66366,3.76517 7.12499,12.60993 -6.07381,3.43188 -7.12499,-12.60993 -9.533173,5.38653 7.341174,12.99254 -6.073811,3.43188 z"
         id="path3981" />
      <path
         d="m 117.30915,803.1331 -2.73193,-4.05439 7.99982,-35.77177 -22.07896,14.87724 -4.143936,-6.14992 32.845106,-22.13168 2.7217,4.03921 -7.87834,35.68991 21.95748,-14.79538 4.15417,6.1651 z"
         id="path3983" />
      <path
         d="m 157.25326,801.01957 -25.55862,20.28384 -4.62135,-5.82313 25.55863,-20.28383 -5.78237,-7.28607 5.46455,-4.33678 16.17471,20.38092 -5.46456,4.33678 z"
         id="path3985" />
      <path
         d="m 198.53033,863.8111 q -1.96362,1.99817 -4.32152,3.32648 -2.34507,1.31525 -4.91599,1.97212 -2.55787,0.6697 -5.22518,0.66707 -2.66731,-0.003 -5.24975,-0.66637 -2.56938,-0.65089 -4.96338,-1.9766 -2.38093,-1.31289 -4.3791,-3.27651 -2.02428,-1.98928 -3.39155,-4.35979 -1.36726,-2.37051 -2.07592,-4.94099 -0.70866,-2.57047 -0.77087,-5.25017 -0.0491,-2.66686 0.56278,-5.24884 0.625,-2.56916 1.89916,-4.93681 1.28698,-2.3807 3.2506,-4.37887 1.95079,-1.98511 4.29586,-3.30036 2.3579,-1.32831 4.90293,-1.98495 2.55787,-0.66971 5.22518,-0.66707 2.68014,-0.0104 5.26258,0.6533 2.58244,0.66372 4.97644,1.98944 2.41989,1.32549 4.45723,3.32761 1.99817,1.96362 3.35237,4.3213 1.36727,2.37051 2.06287,4.92815 0.70866,2.57047 0.75781,5.23733 0.0491,2.66686 -0.57585,5.23602 -0.5991,2.56893 -1.88609,4.94963 -1.28699,2.38071 -3.25061,4.37888 z m -5.23703,-5.14648 q 1.25775,-1.27987 2.08587,-2.82791 0.85401,-1.54826 1.25364,-3.23498 0.41269,-1.67389 0.39756,-3.40879 -0.0151,-1.73491 -0.45694,-3.40135 -0.42898,-1.6795 -1.30987,-3.21263 -0.85499,-1.53335 -2.13486,-2.7911 -1.33212,-1.30908 -2.90627,-2.16287 -1.54826,-0.85401 -3.23521,-1.27953 -1.66106,-0.42575 -3.39596,-0.41062 -1.7349,0.0151 -3.40134,0.45694 -1.65338,0.45465 -3.18651,1.33554 -1.53313,0.88088 -2.80371,2.17381 -1.25774,1.27988 -2.0987,2.84097 -0.82812,1.54803 -1.25364,3.23499 -0.39963,1.68672 -0.38427,3.44752 0.0154,1.76079 0.44433,3.44029 0.45488,1.67927 1.30987,3.21263 0.86805,1.54619 2.14792,2.80394 1.27987,1.25774 2.82791,2.08586 1.56109,0.84096 3.23498,1.25364 1.68673,0.39963 3.43446,0.37144 1.74774,-0.0282 3.41418,-0.47 1.69233,-0.44204 3.21263,-1.30987 1.54619,-0.86805 2.80393,-2.14792 z"
         id="path3987" />
      <path
         d="m 217.00087,862.30874 -4.98605,5.9031 9.34424,7.89261 -4.50162,5.32958 -9.34425,-7.89262 -11.56717,13.69464 -5.66529,-4.7852 25.55647,-30.25688 15.23336,12.86685 -4.50163,5.32958 z"
         id="path3989" />
      <path
         d="m 258.39221,927.53049 q -2.47318,0.11219 -4.48935,-0.0652 -2.00093,-0.16722 -3.71244,-0.60364 -1.68613,-0.44151 -3.17424,-1.14713 -1.47287,-0.69547 -2.88993,-1.6398 -2.3313,-1.55356 -4.11929,-3.62522 -1.77276,-2.06152 -2.97679,-4.44815 -1.17865,-2.39173 -1.76824,-5.00701 -0.56419,-2.62036 -0.47328,-5.26624 0.10616,-2.63573 0.90807,-5.22588 0.8019,-2.59015 2.34531,-4.9062 1.57388,-2.36177 3.65062,-4.12437 2.09199,-1.75245 4.49388,-2.88032 2.40188,-1.12786 5.0375,-1.61588 2.63561,-0.48802 5.30183,-0.29554 2.67636,0.17724 5.29192,1.04009 2.61555,0.86284 4.99255,2.44687 1.3104,0.87324 2.50404,1.95472 1.20887,1.09164 2.27053,2.50325 1.08704,1.40652 2.01673,3.21427 0.94493,1.8179 1.7376,4.12844 l -6.44404,2.63691 q -0.73167,-2.00584 -1.48862,-3.41243 -0.74171,-1.39643 -1.50874,-2.39166 -0.76703,-0.99523 -1.55939,-1.65527 -0.7822,-0.67529 -1.57453,-1.2033 -1.49325,-0.99509 -3.18447,-1.52801 -1.67598,-0.52277 -3.42297,-0.60877 -1.73176,-0.0758 -3.46852,0.28504 -1.7266,0.34566 -3.31601,1.1128 -1.57417,0.77729 -2.9502,1.95067 -1.36588,1.15813 -2.39144,2.69709 -0.94432,1.41706 -1.44678,3.06257 -0.47706,1.64042 -0.54276,3.35694 -0.0556,1.70129 0.30026,3.41265 0.35581,1.71137 1.09248,3.28046 0.7519,1.57926 1.87957,2.92483 1.12766,1.34557 2.60567,2.33051 0.82281,0.54832 1.74717,1.01028 0.93451,0.44673 2.13308,0.76137 1.22396,0.30955 2.80846,0.4413 1.58449,0.13174 3.71742,0.0349 z"
         id="path3991" />
      <path
         d="m 262.28191,934.77963 19.78036,-34.31253 6.42468,3.70367 -16.33275,28.33203 7.9317,4.57244 -3.44762,5.9805 z"
         id="path3993" />
      <path
         d="m 283.44822,946.66086 18.31654,-35.11577 6.65625,3.47193 -18.31654,35.11577 z"
         id="path3995" />
      <path
         d="m 332.81801,969.75808 4.17355,-19.77108 0.96972,-3.51202 -2.51862,2.75785 -15.48479,14.92684 -4.13001,-1.79793 0.34811,-21.8558 0.32068,-3.53494 -1.86089,2.94432 -11.8695,16.7603 -6.88336,-2.99654 23.51459,-32.95926 4.26433,1.85639 -0.47888,28.34915 20.49099,-19.63725 4.26433,1.85639 -8.18653,39.63205 z"
         id="path3997" />
      <path
         d="m 371.50399,983.1176 -0.85308,-11.57756 -12.24398,-4.03152 -7.56465,8.80588 -7.6177,-2.50825 28.19596,-32.41345 4.41758,1.45455 3.14444,42.73278 z m -2.17046,-28.18522 -6.10606,7.06922 6.83507,2.25055 z"
         id="path3999" />
      <path
         d="m 405.00402,958.32659 -8.00015,31.63344 -7.20717,-1.8227 8.00015,-31.63345 -9.01784,-2.28062 1.71047,-6.76338 25.2251,6.37946 -1.71047,6.76338 z"
         id="path4001" />
      <path
         d="m 412.33244,993.55663 7.34043,-38.91954 21.95184,4.14023 -1.30655,6.92743 -14.66455,-2.76581 -1.41854,7.5212 14.23271,2.68437 -1.29297,6.85545 -14.23271,-2.68436 -2.0294,10.76 14.66455,2.76581 -1.29297,6.85545 z"
         id="path4003" />
      <path
         d="m 497.06493,999.60853 q -2.09275,1.32277 -3.93197,2.16747 -1.82096,0.8461 -3.52388,1.3149 -1.68339,0.4518 -3.32563,0.5761 -1.62396,0.1256 -3.32273,0.01 -2.79476,-0.1946 -5.37425,-1.1083 -2.56123,-0.9125 -4.78951,-2.3892 -2.20874,-1.49362 -4.01655,-3.4733 -1.78828,-1.99667 -3.02013,-4.34006 -1.21358,-2.34212 -1.80021,-4.98935 -0.58664,-2.64722 -0.39337,-5.42371 0.19708,-2.83128 1.12782,-5.39124 0.94901,-2.55868 2.47665,-4.72835 1.52764,-2.16966 3.5753,-3.89933 2.04765,-1.72966 4.45903,-2.88336 2.41264,-1.17196 5.11212,-1.71825 2.69948,-0.54629 5.54903,-0.34794 1.57091,0.10935 3.14355,0.45743 1.59091,0.34936 3.21246,1.04959 1.64109,0.68323 3.34426,1.79295 1.72145,1.11098 3.55469,2.72534 l -4.29125,5.48307 q -1.62931,-1.3799 -2.98368,-2.22672 -1.33612,-0.84556 -2.49546,-1.33006 -1.15934,-0.48451 -2.17462,-0.66531 -1.01402,-0.19907 -1.96387,-0.26518 -1.7901,-0.12461 -3.5232,0.25033 -1.71483,0.37622 -3.27498,1.16701 -1.54187,0.79206 -2.87172,1.96597 -1.32857,1.15565 -2.32916,2.60946 -0.98231,1.45507 -1.5963,3.15605 -0.61271,1.6827 -0.74113,3.5276 -0.11825,1.69878 0.26051,3.37708 0.3983,1.6613 1.19163,3.18491 0.7946,1.50535 1.95153,2.81565 1.15692,1.31031 2.57419,2.30835 1.43554,0.99931 3.08171,1.60948 1.64617,0.61017 3.41801,0.73351 0.98638,0.0687 2.0182,0.012 1.03309,-0.0749 2.23011,-0.39541 1.21655,-0.33748 2.6582,-1.00803 1.44164,-0.67055 3.24641,-1.81141 z"
         id="path4005" />
      <path
         d="m 528.09456,1003.8769 -0.22215,-17.85145 -16.56976,0.20621 0.22215,17.85144 -7.4152,0.092 -0.49283,-39.60261 7.41519,-0.0923 0.18297,14.70223 16.56976,-0.2062 -0.18296,-14.70223 7.50674,-0.0934 0.49283,39.60261 z"
         id="path4007" />
      <path
         d="m 571.54651,1000.7166 -5.43867,-10.2561 -12.83134,1.23487 -3.38288,11.10513 -7.98313,0.7683 12.77365,-41.01804 4.62949,-0.44554 20.0702,37.85716 z m -13.32602,-24.93056 -2.74618,8.92841 7.16295,-0.68936 z"
         id="path4009" />
      <path
         d="m 622.63826,992.13329 -4.80495,0.9022 -29.6757,-21.51672 4.91312,26.16628 -7.2884,1.36851 -7.30887,-38.92548 4.78696,-0.89883 29.64867,21.37275 -4.88609,-26.0223 7.3064,-1.37189 z"
         id="path4011" />
      <path
         d="m 650.22286,985.26149 q -2.79727,0.80709 -5.58647,0.84956 -2.7892,0.0425 -5.41164,-0.59209 -2.62244,-0.63455 -4.98745,-1.89604 -2.36501,-1.26149 -4.31391,-3.06231 -1.94889,-1.80081 -3.38592,-4.07329 -1.44211,-2.29008 -2.21875,-4.98179 -0.77663,-2.69171 -0.77612,-5.39802 5.1e-4,-2.70631 0.69563,-5.25094 0.69003,-2.56222 2.01953,-4.88968 1.3295,-2.32746 3.21084,-4.26147 1.88134,-1.93402 4.26445,-3.38391 2.38312,-1.4499 5.18039,-2.25699 5.24268,-1.51266 10.56809,-0.22868 5.33792,1.26131 10.52749,5.4431 l -4.38373,5.87674 q -2.02399,-1.6648 -3.94578,-2.71114 -1.90419,-1.05142 -3.72139,-1.53715 -1.81721,-0.48573 -3.58025,-0.45348 -1.74545,0.0272 -3.46955,0.52462 -1.81207,0.52283 -3.36901,1.46755 -1.55694,0.94471 -2.7735,2.21048 -1.22164,1.24818 -2.10053,2.75956 -0.8613,1.5063 -1.31726,3.16246 -0.43838,1.65108 -0.44639,3.40668 -0.008,1.7556 0.48944,3.4797 0.49745,1.72411 1.43945,3.2056 0.93693,1.4639 2.19255,2.64527 1.26814,1.15871 2.79947,1.97467 1.54893,0.81088 3.25279,1.23403 1.69878,0.40556 3.51968,0.37567 1.82089,-0.0299 3.63296,-0.55271 2.18152,-0.62943 3.93637,-1.879 1.75484,-1.24956 2.98796,-2.92031 1.22803,-1.68835 1.88427,-3.70721 0.65116,-2.03645 0.63039,-4.22207 l -14.61969,4.21819 -1.99489,-6.91401 21.97353,-6.33997 q 1.30275,2.86389 1.74817,5.8608 0.44035,2.97931 0.0731,5.86766 -0.35473,2.86569 -1.50726,5.54229 -1.13494,2.67153 -3.00543,4.90734 -1.85798,2.21313 -4.40145,3.89987 -2.54346,1.68674 -5.71018,2.60042 z"
         id="path4013" />
      <path
         d="m 676.366,976.37704 -13.93608,-37.07288 20.91027,-7.86038 2.48053,6.59873 -13.96874,5.251 2.69315,7.16433 13.55739,-5.09636 2.45476,6.53017 -13.55739,5.09637 3.85287,10.24946 13.96875,-5.251 2.45476,6.53018 z"
         id="path4015" />
      <path
         d="m 749.01827,944.02119 -8.86986,-7.48954 -11.44617,5.92902 1.00061,11.56575 -7.12134,3.68879 -3.43736,-42.82323 4.12973,-2.13917 32.73566,27.64696 z m -21.65892,-18.16613 0.77999,9.30857 6.3897,-3.30981 z"
         id="path4017" />
      <path
         d="m 793.22874,917.01226 -4.1224,2.62819 -35.55729,-8.9048 14.31229,22.4493 -6.25308,3.98657 -21.29124,-33.39603 4.10695,-2.61834 35.47855,8.78128 -14.23354,-22.32579 6.26851,-3.99641 z"
         id="path4019" />
      <path
         d="m 812.97364,877.30468 q 1.84811,2.41317 2.85527,4.96297 1.00716,2.54981 1.23832,5.14039 0.2457,2.57945 -0.26326,5.13719 -0.50555,2.53207 -1.68625,4.93543 -1.19184,2.38882 -3.0375,4.58647 -1.84224,2.17197 -4.26994,4.03121 l -7.13774,5.4664 -24.08109,-31.44382 7.13773,-5.4664 q 2.47131,-1.89264 5.07402,-3.10175 2.60612,-1.23479 5.23414,-1.74832 2.61689,-0.52808 5.20434,-0.3417 2.57633,0.17183 4.99919,1.10697 2.4374,0.924 4.64433,2.60109 2.20693,1.6771 4.08844,4.13387 z m -5.96022,4.56461 q -1.79244,-2.34048 -4.05384,-3.60684 -2.26139,-1.26637 -4.7573,-1.45367 -2.48137,-0.19842 -5.10571,0.6813 -2.6098,0.8686 -5.13926,2.80577 l -1.19204,0.91292 15.55307,20.30838 1.19204,-0.91293 q 2.50039,-1.9149 4.01913,-4.20814 1.53329,-2.30436 2.01409,-4.74829 0.46966,-2.45846 -0.14131,-4.94268 -0.60756,-2.50988 -2.38887,-4.83582 z"
         id="path4021" />
      <path
         d="m 846.9622,873.57829 -27.52282,-28.47994 16.06358,-15.52373 4.89889,5.06924 -10.731,10.37037 5.31879,5.50375 10.41499,-10.06498 4.84799,5.01658 -10.415,10.06497 7.60918,7.87379 10.731,-10.37036 4.84798,5.01658 z"
         id="path4023" />
      <path
         d="m 893.66241,824.29509 -3.23808,3.66283 -36.63429,1.243 19.94664,17.6336 -4.91169,5.55598 -29.67304,-26.23211 3.22596,-3.64911 36.52454,-1.34002 -19.8369,-17.53659 4.92383,-5.56969 z"
         id="path4025" />
      <path
         d="m 908.87011,804.1225 -2.7732,3.73363 -40.24533,-12.23854 4.65111,-6.26193 21.33659,6.49632 4.193,1.54058 -2.66026,-3.48132 -12.39887,-18.65227 4.65111,-6.26192 z"
         id="path4027" />
      <path
         d="m 920.99396,786.89164 -33.05078,-21.82334 4.13665,-6.26483 33.05078,21.82334 z"
         id="path4029" />
      <path
         d="m 939.40269,757.29799 -18.31061,1.37656 12.97804,7.65917 -3.69465,6.26037 -34.10873,-20.12976 4.42055,-7.49036 q 0.97717,-1.65577 2.0942,-3.08016 1.12633,-1.44017 2.39045,-2.50135 1.27343,-1.07696 2.69757,-1.72479 1.41767,-0.6729 3.0026,-0.80061 1.57847,-0.15278 3.32782,0.30556 1.74288,0.43327 3.66672,1.56865 1.87653,1.10746 3.09903,2.53057 1.2318,1.40733 1.86541,3.0357 0.64292,1.61259 0.70626,3.41467 0.0726,1.78631 -0.4007,3.63311 l 20.73311,-1.62654 z M 914.0624,745.04325 q -1.27731,-0.75381 -2.31988,-0.75252 -1.05835,-0.008 -1.91505,0.50694 -0.87248,0.50564 -1.57563,1.40888 -0.71892,0.89393 -1.33314,1.9347 l -0.91203,1.54538 7.94766,4.69043 1.07024,-1.81346 q 0.56769,-0.96192 0.92754,-2.00398 0.35985,-1.04205 0.33064,-2.03732 -0.0292,-0.99527 -0.54132,-1.89282 -0.51212,-0.89755 -1.67903,-1.58623 z"
         id="path4031" />
      <path
         d="m 946.10844,700.72339 q 2.51911,1.22581 4.52861,3.03854 1.99304,1.80472 3.43378,4.03304 1.44875,2.21185 2.29492,4.74139 0.84618,2.52953 1.03861,5.18895 0.20045,2.64295 -0.29466,5.33434 -0.4871,2.67493 -1.71291,5.19403 -1.24183,2.55203 -3.05412,4.60248 -1.81229,2.05045 -4.02371,3.54014 -2.21141,1.48969 -4.73205,2.40128 -2.51263,0.89513 -5.15514,1.13652 -2.6345,0.22492 -5.28451,-0.22969 -2.66648,-0.46263 -5.18558,-1.68844 -2.50264,-1.21779 -4.49568,-3.02251 -2.0095,-1.81273 -3.44179,-4.01657 -1.44875,-2.21186 -2.29492,-4.74139 -0.86264,-2.53755 -1.05507,-5.19697 -0.19244,-2.65942 0.30267,-5.35081 0.48666,-2.71587 1.73651,-5.28436 1.2258,-2.5191 3.03008,-4.55309 1.81229,-2.05044 4.01569,-3.52367 2.21142,-1.48969 4.72405,-2.38482 2.51263,-0.89512 5.14713,-1.12005 2.62604,-0.2494 5.29252,0.21323 2.66647,0.46262 5.18557,1.68843 z m -3.21273,6.60235 q -1.61355,-0.78516 -3.34462,-1.0777 -1.73953,-0.31701 -3.46575,-0.1592 -1.71821,0.14135 -3.35813,0.70769 -1.63993,0.56635 -3.0792,1.51542 -1.45572,0.94107 -2.6289,2.26398 -1.18164,1.29843 -1.9668,2.91198 -0.8172,1.6794 -1.12577,3.4434 -0.31701,1.73953 -0.18367,3.4742 0.12488,1.7102 0.69122,3.35013 0.56635,1.63992 1.51542,3.07919 0.95709,1.4228 2.28,2.59598 1.32291,1.17318 2.95292,1.96635 1.61354,0.78516 3.36108,1.08571 1.73107,0.29254 3.46575,0.1592 1.72622,-0.15781 3.39062,-0.73261 1.66441,-0.5748 3.12014,-1.51586 1.44727,-0.96554 2.62891,-2.26398 1.18964,-1.3149 1.9748,-2.92844 0.78516,-1.61354 1.0777,-3.34461 0.30055,-1.74754 0.1592,-3.46575 -0.15781,-1.72622 -0.74062,-3.37416 -0.58281,-1.64794 -1.53189,-3.08721 -0.95753,-1.46374 -2.26397,-2.62891 -1.3149,-1.18964 -2.92844,-1.9748 z"
         id="path4033" />
      <path
         d="m 979.78882,667.58495 -1.71139,4.57959 -33.75879,14.28147 24.93903,9.31971 -2.59593,6.94657 -37.09982,-13.86419 1.70498,-4.56244 33.62158,-14.33275 -24.80182,-9.26843 2.60234,-6.96372 z"
         id="path4035" />
      <path
         d="m 992.2326,622.62841 -20.17615,-1.11239 -3.61875,-0.42329 3.10939,2.06901 17.1119,13.02966 -1.14766,4.35573 -21.65366,2.98602 -3.54253,0.22167 3.19348,1.39055 18.37311,9.17722 -1.91277,7.25956 -36.15724,-18.21819 1.18498,-4.49739 28.09112,-3.84614 -22.53009,-17.2597 1.18498,-4.49739 40.41666,2.05239 z"
         id="path4037" />
      <path
         d="m 995.0017,608.88911 -39.00645,-6.86363 3.8713,-22.00086 6.94289,1.22168 -2.58615,14.6973 7.538,1.32639 2.51,-14.26449 6.87076,1.20899 -2.51,14.26449 10.78403,1.89757 2.58616,-14.6973 6.87076,1.20899 z"
         id="path4039" />
      <path
         d="m 1003.812,541.56842 -0.4663,4.86662 -28.9055,22.54086 26.5021,2.53957 -0.7073,7.38195 -39.42516,-3.77791 0.4646,-4.84839 28.75965,-22.55484 -26.35632,-2.52559 0.70913,-7.40018 z"
         id="path4041" />
      <path
         d="m 971.62443,517.8202 32.62427,0.57696 -0.1314,7.43292 -32.62432,-0.57696 -0.16447,9.30031 -6.97523,-0.12336 0.46007,-26.01522 6.97523,0.12336 z"
         id="path4043" />
    </g>
  </g>
</svg>
